<svg xmlns="http://www.w3.org/2000/svg" xmlns:xlink="http://www.w3.org/1999/xlink" viewBox="0 0 523.88 354.63"><defs><style>.cls-1,.cls-10,.cls-11,.cls-9{fill:none;}.cls-2{fill:#533013;}.cls-3{fill:#d8022c;}.cls-13,.cls-4{fill:#b85ba6;}.cls-11,.cls-12,.cls-13,.cls-4,.cls-5,.cls-9{stroke:#000;}.cls-10,.cls-11,.cls-12,.cls-13,.cls-4,.cls-5,.cls-9{stroke-miterlimit:10;}.cls-4{stroke-width:4.34px;}.cls-5{fill:#ffe6af;}.cls-12,.cls-5,.cls-9{stroke-width:9.76px;}.cls-6{fill:#e6d3a7;}.cls-7{fill:#fff;}.cls-8{fill:url(#New_Pattern_Swatch_1);}.cls-10{stroke:#b63622;}.cls-10,.cls-13{stroke-width:3.9px;}.cls-11{stroke-width:1.95px;}.cls-12{fill:url(#New_Pattern_Swatch_1-3);}.cls-14{fill:#e36738;}.cls-15{fill:#fe705a;}</style><pattern id="New_Pattern_Swatch_1" data-name="New Pattern Swatch 1" width="31.01" height="31.01" patternTransform="translate(-47.13 -44.41) scale(1.95 1.95)" patternUnits="userSpaceOnUse" viewBox="0 0 31.01 31.01"><rect class="cls-1" width="31.01" height="31.01"/><rect class="cls-2" width="31.01" height="31.01"/></pattern><pattern id="New_Pattern_Swatch_1-3" data-name="New Pattern Swatch 1" width="31.01" height="31.01" patternTransform="translate(-63.17 -45.74) scale(1.95)" patternUnits="userSpaceOnUse" viewBox="0 0 31.01 31.01"><rect class="cls-1" width="31.01" height="31.01"/><rect class="cls-2" width="31.01" height="31.01"/></pattern></defs><g id="Layer_2" data-name="Layer 2"><g id="Layer_1-2" data-name="Layer 1"><polygon class="cls-3" points="99.51 330.68 263.82 330.68 263.82 243.81 146.88 243.81 99.51 330.68"/><polygon class="cls-3" points="380.87 243.81 263.92 243.81 263.92 330.68 428.24 330.68 380.87 243.81"/><path d="M396.13,279.64c-10.22-14.69,0-22.58,0-22.58V205.65C348.7,240.13,264.57,253.5,264.57,253.5S180.45,240.13,133,205.65v51.41s10.22,7.89,0,22.58-2.45,75,10.58,75H247.49l17.08-23.95,17.08,23.95h103.9C398.58,354.63,406.35,294.33,396.13,279.64Z"/><rect x="112.18" y="225.53" width="32.27" height="52.84" rx="13.57"/><rect x="378.77" y="225.53" width="32.27" height="52.84" rx="13.57"/><path class="cls-4" d="M383.52,236.27s-104.72,44.4-120.54,41c-15.82,3.4-120.55-41-120.55-41-6.16,56.75,23.89,76.58,23.89,76.58H359.64S389.69,293,383.52,236.27Z"/><path class="cls-5" d="M423.25,143.46C423.25,220,350,282,259.69,282S96.16,220,96.16,143.46a117.74,117.74,0,0,1,3-26.46c9.21-40.37,39.11-74.5,80-94.15a185.91,185.91,0,0,1,80.58-18C350,4.88,423.25,66.93,423.25,143.46Z"/><path class="cls-6" d="M322.6,267.6a188.92,188.92,0,0,1-62.05,10.32c-90.32,0-163.53-62-163.53-138.56A118.27,118.27,0,0,1,99.14,117c9.21-40.37,39.11-74.5,80-94.15a161.72,161.72,0,0,0-18.17,13C142,51.61,127.55,71.22,119.38,93.17a119,119,0,0,0-7.53,41.7c0,76.53,73.21,138.58,163.53,138.58A191.65,191.65,0,0,0,322.6,267.6Z"/><circle cx="164.41" cy="129.75" r="53.6"/><circle cx="356.05" cy="129.75" r="53.6"/><circle class="cls-7" cx="139.35" cy="123.05" r="20.4"/><circle class="cls-7" cx="381.99" cy="123.05" r="20.4"/><path class="cls-8" d="M199.24,91.62,221.55,43.7,175.33,91.62H105.78C130.33,41.47,188.57,6.21,256.5,6.21S382.69,41.47,407.25,91.62Z"/><path class="cls-9" d="M423.25,143.46C423.25,220,350,282,259.69,282S96.16,220,96.16,143.46a117.74,117.74,0,0,1,3-26.46c9.21-40.37,39.11-74.5,80-94.15a185.91,185.91,0,0,1,80.58-18C350,4.88,423.25,66.93,423.25,143.46Z"/><path class="cls-10" d="M213.71,226s51.17,46.29,101.72,0"/><path class="cls-11" d="M251.42,185.15s13.24-20.17,24.91,0"/><path class="cls-12" d="M169.13,28.06s-62.39-29.21-112.52-8C9.76,44.24,5.37,73.15,5.37,73.15l75.39,35.5S102.72,57.41,169.13,28.06Z"/><path class="cls-12" d="M354.76,28.06s62.38-29.21,112.52-8c46.84,24.16,51.24,53.07,51.24,53.07l-75.4,35.5S421.17,57.41,354.76,28.06Z"/><rect class="cls-13" x="343.31" y="9.02" width="22.89" height="51.51" rx="7.11"/><rect class="cls-13" x="155.46" y="9.02" width="22.89" height="51.51" rx="7.11"/><circle class="cls-14" cx="241.01" cy="149.69" r="2.57"/><circle class="cls-14" cx="233.68" cy="157.75" r="4.32"/><circle class="cls-14" cx="242.77" cy="159.95" r="1.25"/><circle class="cls-14" cx="238.01" cy="170.21" r="3.01"/><circle class="cls-14" cx="224.68" cy="170.21" r="1.35"/><circle class="cls-15" cx="286.82" cy="149.69" r="2.57"/><circle class="cls-15" cx="294.15" cy="157.75" r="4.32"/><circle class="cls-15" cx="285.06" cy="159.95" r="1.25"/><circle class="cls-15" cx="289.82" cy="170.21" r="3.01"/><circle class="cls-15" cx="303.16" cy="170.21" r="1.35"/></g></g></svg>