<svg xmlns="http://www.w3.org/2000/svg" viewBox="0 0 139.29 112.81"><defs><style>.cls-1{fill:#231f20;}.cls-2{fill:#fdd252;}.cls-3{fill:#070707;}.cls-4{fill:#bd5ba3;}.cls-5{fill:#40a8df;}</style></defs><g id="Layer_2" data-name="Layer 2"><g id="Layer_1-2" data-name="Layer 1"><path class="cls-1" d="M28.6,32.46C31.87,29,33.67,27.11,34,26.75a21,21,0,0,1,6.4-4.4Q46.32,20,51.81,24.21A22.68,22.68,0,0,1,59,34.14q3.6,9.13,3.56,23.86a1.73,1.73,0,0,1-1.15,1.82c-1.28.5-2.14.17-2.61-1a2.8,2.8,0,0,1-.17-.87,62.81,62.81,0,0,0-4-23.5Q50,23,42.08,26.1a19.76,19.76,0,0,0-5.73,3.8q-1.31,1.2-6,6.37a102.62,102.62,0,0,1,5,19.11,1.75,1.75,0,0,1-1.18,2.17,2,2,0,0,1-1.65-.07,1.92,1.92,0,0,1-1.06-1.41A93.38,93.38,0,0,0,26.8,38q-3-7.52-5.22-7.64-1.81.56-6.78,6.85L8.25,46l1.63,4.12q5.39,13.43,5.77,15.67a1.83,1.83,0,0,1-1.18,2.17,2.06,2.06,0,0,1-1.72,0,1.76,1.76,0,0,1-1-1.43q-.29-1.59-5.55-14.91L2.39,41.89q-2-5.14-2.18-5.52a1.74,1.74,0,0,1,1.1-2.56,1.74,1.74,0,0,1,2.56,1.11l2.75,6.74q5.07-6.93,6.4-8.49c2.94-3.59,5.35-5.77,7.26-6.53Q24.6,24.93,28.6,32.46Z"/><path class="cls-1" d="M76.62,32.83a20.36,20.36,0,0,1,6.72-1.19,13.87,13.87,0,0,1,9.74,3.48c-1-5.43-1.54-9.38-1.74-11.86-.17-1.48.5-2.22,2-2.22a1.78,1.78,0,0,1,2,1.82,190.74,190.74,0,0,0,3.17,19.62q2.92,14.48,4.66,18.83a2.6,2.6,0,0,1,.16.87c0,1.26-.69,1.9-2.06,1.9q-1.81,0-3.48-6-.8-3.87-1.66-7.67a35.89,35.89,0,0,1-5.46,12Q86.44,68.27,81.84,69a14,14,0,0,1-3.79.56q-5.7,0-9.18-5.46a21.84,21.84,0,0,1-3.24-12.19,24.12,24.12,0,0,1,2.68-11.47A15.13,15.13,0,0,1,76.62,32.83Zm1.43,3.79a11.64,11.64,0,0,0-6.42,6.08,21.18,21.18,0,0,0-2,9.47,18.25,18.25,0,0,0,2.21,9.31q2.38,4.09,6.49,4.1A8.67,8.67,0,0,0,81,65.11c3-.43,5.83-3.21,8.47-8.37q3.63-7.1,3.64-12.62a8.6,8.6,0,0,0-.16-1.74,8.8,8.8,0,0,0-3.41-5,10.28,10.28,0,0,0-6.17-1.81A15.27,15.27,0,0,0,78.05,36.62Z"/><path class="cls-1" d="M116,4.75q.39,6.48.39,15.42a415.94,415.94,0,0,1-2.13,43.12,1.8,1.8,0,0,1-2,1.74q-2.22,0-2-2.22a404.92,404.92,0,0,0,2.14-42.64q0-8.78-.4-15.11a1.74,1.74,0,0,1,2-2.13A1.78,1.78,0,0,1,116,4.75Z"/><path class="cls-1" d="M129.23,30.85c-1.38,0-2,.71-2,2.14a131.64,131.64,0,0,1-.71,15.11q-1,12.66-2.14,15.19a2.6,2.6,0,0,0-.16.87c0,1.31.69,2,2.06,2A1.82,1.82,0,0,0,128,65q1.43-3.16,2.45-16.54a136.87,136.87,0,0,0,.71-15.66A1.76,1.76,0,0,0,129.23,30.85Z"/><path class="cls-1" d="M137.22,2.77A6.12,6.12,0,0,0,132,0a7.66,7.66,0,0,0-5.94,2.93,13.28,13.28,0,0,0-2.93,8.46q-.07,5.38,1,7.75c1,2.43,3.26,3.77,6.64,4,3.69.26,6.14-.92,7.36-3.56q.94-2.13,1.18-8.39C139.43,7.65,138.74,4.83,137.22,2.77Zm-2.06,11.94a7.16,7.16,0,0,1-.79,3.41c-.63.84-1.77,1.21-3.4,1.1-2.48-.16-3.78-1.74-3.88-4.74a15.87,15.87,0,0,1,1.42-7.91Q129.86,4,131.84,4a2.85,2.85,0,0,1,2.53,1.73,10.23,10.23,0,0,1,.95,5.39C135.26,12.71,135.21,13.92,135.16,14.71Z"/><path class="cls-2" d="M135.32,11.08a10.23,10.23,0,0,0-.95-5.39A2.85,2.85,0,0,0,131.84,4q-2,0-3.33,2.61a15.87,15.87,0,0,0-1.42,7.91c.1,3,1.4,4.58,3.88,4.74,1.63.11,2.77-.26,3.4-1.1a7.16,7.16,0,0,0,.79-3.41C135.21,13.92,135.26,12.71,135.32,11.08Z"/><path class="cls-1" d="M5.94,88.14q1.15,1.74,4.2,12.43c.84-1.63,2.13-4.08,3.87-7.33a.87.87,0,0,1,.71-.52.87.87,0,0,1,.72.52c.68,1.27,1.39,2.53,2.1,3.78.81,1.44,1.58,2.68,2.29,3.71Q24.57,84,26.09,82a.78.78,0,0,1,.62-.33.74.74,0,0,1,.84.82.79.79,0,0,1-.16.48q-.78,1-3.33,9.27-2,6.48-3.13,10.56c-.13.45-.33.68-.58.68-.52,0-1.28-.77-2.27-2.31-.1-.16-.63-1-1.58-2.64-.45-.82-1-1.9-1.78-3.22-.66,1.31-1.32,2.62-2,3.94a33.38,33.38,0,0,1-2.26,3.81.84.84,0,0,1-.71.42c-.34,0-.58-.23-.71-.68q-.42-1.51-1.81-6.26Q5.32,90.14,4.58,89a1,1,0,0,1-.13-.45q0-.81.84-.81A.77.77,0,0,1,5.94,88.14Z"/><path class="cls-1" d="M29.19,89.91a7.46,7.46,0,0,1,2.27-3.68A6.4,6.4,0,0,1,35.85,84a3.41,3.41,0,0,1,3,1.55A5.58,5.58,0,0,1,39.89,89,5.1,5.1,0,0,1,39,92.06a22.46,22.46,0,0,1-2.19,2.27,23,23,0,0,0-2.42,2.52,4.73,4.73,0,0,0-1.17,2.81,3,3,0,0,0,.39,1.49,1.91,1.91,0,0,0,1.81,1.1,5.31,5.31,0,0,0,3-1.27,6.82,6.82,0,0,0,2.07-2.21.74.74,0,0,1,.71-.46q.84,0,.84.81a.72.72,0,0,1-.1.35,8.14,8.14,0,0,1-2.68,2.88,7,7,0,0,1-4,1.52,3.31,3.31,0,0,1-3.1-2,5.09,5.09,0,0,1-.65-2.39,5.3,5.3,0,0,1,1.2-3.16,19.7,19.7,0,0,1,2.53-2.7,20.41,20.41,0,0,0,2.41-2.5,3.53,3.53,0,0,0,.68-2.1,4,4,0,0,0-.76-2.38,2,2,0,0,0-1.7-1,4.89,4.89,0,0,0-3.29,1.74,6.08,6.08,0,0,0-1.81,2.88.72.72,0,0,1-.78.64.84.84,0,0,1-.64-.27A.73.73,0,0,1,29.19,89.91Z"/><path class="cls-3" d="M59.07,87.71a7.3,7.3,0,0,0-4.52-2.55,7.88,7.88,0,0,0-4.13,1.17,12.18,12.18,0,0,0-4.27,3.45c.07-1.55.13-3,.2-4.26a.81.81,0,0,0-1.62-.07Q44.12,97,43.89,112a.81.81,0,0,0,1.62,0q.09-6.44.32-13.89c1.34,2.22,3.49,3.32,6.46,3.32a9.43,9.43,0,0,0,6.14-2.16,8,8,0,0,0,3-6.17A7.25,7.25,0,0,0,59.07,87.71ZM57.32,98.05a7.81,7.81,0,0,1-5.08,1.78A5.93,5.93,0,0,1,48,98.25a6.15,6.15,0,0,1-1.62-5q.16-2.38,3.33-4.62,2.88-2,4.7-1.84a5.7,5.7,0,0,1,3.53,2.07,5.79,5.79,0,0,1,1.91,4.23A6.4,6.4,0,0,1,57.32,98.05Z"/><path class="cls-1" d="M67.6,90.69a8.15,8.15,0,0,1,2.75-.49,5.64,5.64,0,0,1,4,1.43c-.39-2.22-.62-3.84-.71-4.85-.06-.61.2-.9.81-.9a.71.71,0,0,1,.8.74,78.46,78.46,0,0,0,1.3,8,56,56,0,0,0,1.9,7.69,1,1,0,0,1,.07.35q0,.78-.84.78c-.5,0-1-.82-1.42-2.46-.22-1-.45-2.1-.68-3.13a14.82,14.82,0,0,1-2.23,4.88,6.11,6.11,0,0,1-5.14,2.93,4.27,4.27,0,0,1-3.74-2.22,8.9,8.9,0,0,1-1.33-5,9.86,9.86,0,0,1,1.1-4.68A6.16,6.16,0,0,1,67.6,90.69Zm.58,1.55a4.7,4.7,0,0,0-2.61,2.48,8.62,8.62,0,0,0-.84,3.86,7.49,7.49,0,0,0,.9,3.81,3,3,0,0,0,2.65,1.67,3.49,3.49,0,0,0,1.1-.19q1.84-.25,3.46-3.42a11.55,11.55,0,0,0,1.48-5.15,3.55,3.55,0,0,0-.06-.71,3.58,3.58,0,0,0-1.39-2,4.24,4.24,0,0,0-2.52-.74A6.26,6.26,0,0,0,68.18,92.24Z"/><path class="cls-1" d="M96.77,88.49a.7.7,0,0,1,.74-.55q.84,0,.84.78a1.29,1.29,0,0,1,0,.29c-.15.47-.42,1.79-.81,3.94a.47.47,0,0,1-.06.35q-1.29,7.53-1.13,8.76.09.9-.81.9a.74.74,0,0,1-.81-.71c-.1-1,.28-4,1.17-9.14a9.28,9.28,0,0,0-2.65-2.55A8.53,8.53,0,0,0,89.31,89a6.36,6.36,0,0,0-4,1A5.37,5.37,0,0,0,82.68,93a25.54,25.54,0,0,0-.41,5.49,18.1,18.1,0,0,1-.46,4.84.72.72,0,0,1-.71.49q-.84,0-.84-.78a1.27,1.27,0,0,1,.07-.35,21.21,21.21,0,0,0,.32-4.59,26.92,26.92,0,0,1,.49-5.55,6.59,6.59,0,0,1,2.94-3.65,8.58,8.58,0,0,1,4.71-1.49,8.93,8.93,0,0,1,4.07,1.1A12.14,12.14,0,0,1,96.22,91C96.48,89.7,96.66,88.86,96.77,88.49Z"/><path class="cls-1" d="M106.3,78.41a2.51,2.51,0,0,0-2.13-1.13,3.12,3.12,0,0,0-2.43,1.2,5.38,5.38,0,0,0-1.19,3.45,8.59,8.59,0,0,0,.38,3.17,2.94,2.94,0,0,0,2.72,1.65c1.51.1,2.51-.38,3-1.46a10.91,10.91,0,0,0,.49-3.42A5.34,5.34,0,0,0,106.3,78.41Zm-.77,3.39c0,.67,0,1.17-.07,1.49a2.75,2.75,0,0,1-.33,1.39,1.5,1.5,0,0,1-1.38.45c-1-.06-1.54-.71-1.59-1.94a6.42,6.42,0,0,1,.59-3.23c.36-.71.81-1.06,1.35-1.06a1.15,1.15,0,0,1,1,.71A4,4,0,0,1,105.53,81.8Z"/><path class="cls-1" d="M103,89.88q-.84,0-.81.87a54.35,54.35,0,0,1-.29,6.17c-.26,3.45-.55,5.51-.87,6.2a1,1,0,0,0-.07.36q0,.81.84.81a.74.74,0,0,0,.71-.49q.58-1.29,1-6.75a55.09,55.09,0,0,0,.29-6.39A.72.72,0,0,0,103,89.88Z"/><path class="cls-4" d="M105.53,81.8a4,4,0,0,0-.4-2.19,1.15,1.15,0,0,0-1-.71c-.54,0-1,.35-1.35,1.06a6.42,6.42,0,0,0-.59,3.23c0,1.23.58,1.88,1.59,1.94a1.5,1.5,0,0,0,1.38-.45,2.75,2.75,0,0,0,.33-1.39C105.48,83,105.5,82.47,105.53,81.8Z"/><path class="cls-1" d="M113.44,90.69a8.09,8.09,0,0,1,2.74-.49,5.67,5.67,0,0,1,4,1.43c-.39-2.22-.63-3.84-.72-4.85-.06-.61.21-.9.81-.9a.72.72,0,0,1,.81.74,80.6,80.6,0,0,0,1.29,8,55.46,55.46,0,0,0,1.91,7.69,1.17,1.17,0,0,1,.06.35q0,.78-.84.78c-.49,0-1-.82-1.42-2.46-.22-1-.44-2.1-.68-3.13a14.61,14.61,0,0,1-2.22,4.88c-1.15,1.61-2.34,2.52-3.59,2.71a5.79,5.79,0,0,1-1.55.22,4.3,4.3,0,0,1-3.75-2.22,9,9,0,0,1-1.32-5,9.74,9.74,0,0,1,1.1-4.68A6.1,6.1,0,0,1,113.44,90.69Zm.58,1.55a4.75,4.75,0,0,0-2.62,2.48,8.62,8.62,0,0,0-.84,3.86,7.39,7.39,0,0,0,.91,3.81,2.94,2.94,0,0,0,2.64,1.67,3.55,3.55,0,0,0,1.11-.19q1.83-.25,3.45-3.42a11.57,11.57,0,0,0,1.49-5.15,3.47,3.47,0,0,0-.07-.71,3.58,3.58,0,0,0-1.39-2,4.24,4.24,0,0,0-2.52-.74A6.17,6.17,0,0,0,114,92.24Z"/><path class="cls-1" d="M129.52,79.22c.11,1.77.16,3.86.16,6.3a169.57,169.57,0,0,1-.87,17.6.73.73,0,0,1-.81.71c-.6,0-.87-.3-.8-.9a165.3,165.3,0,0,0,.87-17.41c0-2.39-.06-4.45-.16-6.17a.81.81,0,0,1,1.61-.13Z"/><path class="cls-1" d="M139,81.87a10.61,10.61,0,0,1-.49,3.42c-.49,1.08-1.49,1.56-3,1.46a2.92,2.92,0,0,1-2.71-1.65,8.34,8.34,0,0,1-.39-3.17,5.39,5.39,0,0,1,1.2-3.45,3.1,3.1,0,0,1,2.42-1.2,2.51,2.51,0,0,1,2.13,1.13A5.23,5.23,0,0,1,139,81.87Zm-3.3,8.79a56.69,56.69,0,0,1-.28,6.39c-.29,3.64-.62,5.89-1,6.75a.73.73,0,0,1-.71.49q-.84,0-.84-.81a1,1,0,0,1,.07-.36c.32-.69.61-2.75.87-6.2a52,52,0,0,0,.29-6.17q0-.87.81-.87A.71.71,0,0,1,135.72,90.66Zm1.68-8.86a4.05,4.05,0,0,0-.38-2.19,1.17,1.17,0,0,0-1-.71c-.53,0-1,.35-1.35,1.06a6.43,6.43,0,0,0-.58,3.23c0,1.23.56,1.88,1.58,1.94a1.52,1.52,0,0,0,1.39-.45,2.89,2.89,0,0,0,.32-1.39C137.36,83,137.38,82.47,137.4,81.8Z"/><path class="cls-5" d="M54.38,86.78q-1.82-.19-4.7,1.84-3.16,2.23-3.33,4.62a6.15,6.15,0,0,0,1.62,5,5.93,5.93,0,0,0,4.27,1.58,7.81,7.81,0,0,0,5.08-1.78,6.4,6.4,0,0,0,2.5-5,5.79,5.79,0,0,0-1.91-4.23A5.7,5.7,0,0,0,54.38,86.78Z"/></g></g></svg>