<svg width="158" height="150" viewBox="0 0 158 150" fill="none" xmlns="http://www.w3.org/2000/svg">
<path d="M95.5671 8.41593L13.5679 26.0288L37.8772 139.446L119.876 121.833L95.5671 8.41593Z" fill="#E0E0E0"/>
<g opacity="0.5">
<path opacity="0.5" d="M94.5941 10.6311L15.3662 27.6487L38.8538 137.232L118.082 120.215L94.5941 10.6311Z" fill="url(#paint0_linear)"/>
</g>
<path d="M93.7567 11.6542L16.5459 28.2385L39.5146 135.401L116.725 118.817L93.7567 11.6542Z" fill="#FAFAFA"/>
<path d="M73.4088 11.1658L35.1055 19.3931L37.0963 28.6814L75.3996 20.4541L73.4088 11.1658Z" fill="url(#paint1_linear)"/>
<path d="M52.3103 6.20692C49.3531 6.8428 47.482 9.81471 48.1326 12.8443C48.7831 15.8738 51.7058 17.8179 54.6573 17.1821C57.6087 16.5462 59.4856 13.5743 58.835 10.5447C58.1844 7.51518 55.2675 5.57105 52.3103 6.20692ZM54.166 14.871C53.541 15.0202 52.8858 14.9798 52.2838 14.7548C51.6819 14.5298 51.1605 14.1305 50.786 13.6078C50.4116 13.0851 50.2012 12.4626 50.1815 11.8197C50.1618 11.1768 50.3337 10.5426 50.6754 9.99786C51.0172 9.45315 51.5131 9.02263 52.1002 8.76116C52.6872 8.49969 53.3387 8.41911 53.9717 8.5297C54.6047 8.64029 55.1904 8.93703 55.6543 9.38211C56.1181 9.82719 56.4391 10.4005 56.5763 11.0288C56.6711 11.4396 56.6839 11.8651 56.6139 12.2808C56.544 12.6965 56.3927 13.0943 56.1687 13.4513C55.9447 13.8083 55.6525 14.1175 55.3088 14.3612C54.9651 14.6048 54.5768 14.7781 54.166 14.871Z" fill="url(#paint2_linear)"/>
<path d="M72.9198 10.8535L35.4233 18.9075L37.3264 27.7863L74.8229 19.7323L72.9198 10.8535Z" fill="#008AAD"/>
<path d="M52.3117 6.20737C51.2753 6.43006 50.3281 6.95542 49.5899 7.71701C48.8517 8.4786 48.3557 9.44221 48.1645 10.486C47.9734 11.5298 48.0957 12.6069 48.516 13.5811C48.9364 14.5553 49.6359 15.3828 50.526 15.959C51.4162 16.5353 52.457 16.8344 53.5169 16.8184C54.5769 16.8025 55.6083 16.4723 56.4807 15.8696C57.3532 15.2669 58.0276 14.4187 58.4185 13.4323C58.8095 12.4459 58.8995 11.3657 58.6771 10.3281C58.5295 9.63909 58.2477 8.98595 57.8479 8.40598C57.4481 7.826 56.9381 7.33054 56.347 6.94789C55.7559 6.56524 55.0953 6.30289 54.4029 6.17583C53.7106 6.04877 53 6.05949 52.3117 6.20737ZM54.0849 14.4872C53.4867 14.6157 52.8638 14.5637 52.2951 14.3379C51.7263 14.112 51.2373 13.7223 50.8898 13.2182C50.5423 12.7141 50.3519 12.1181 50.3428 11.5056C50.3336 10.8932 50.5061 10.2918 50.8384 9.77748C51.1707 9.26318 51.6479 8.85907 52.2097 8.61627C52.7714 8.37348 53.3924 8.30289 53.9942 8.41344C54.596 8.52399 55.1516 8.81071 55.5906 9.23735C56.0296 9.66399 56.3324 10.2114 56.4607 10.8103C56.6326 11.6132 56.4789 12.4517 56.0334 13.1412C55.5879 13.8308 54.887 14.3149 54.0849 14.4872Z" fill="#008AAD"/>
<path d="M133.659 22.4597H49.7935V138.458H133.659V22.4597Z" fill="#E0E0E0"/>
<g opacity="0.5">
<path opacity="0.5" d="M132.242 24.4204H51.2114V136.498H132.242V24.4204Z" fill="url(#paint3_linear)"/>
</g>
<path d="M131.211 25.2466H52.2427V134.848H131.211V25.2466Z" fill="white"/>
<path d="M111.417 20.4937H72.2422V29.9934H111.417V20.4937Z" fill="url(#paint4_linear)"/>
<path d="M91.8299 11.2212C88.8055 11.2212 86.353 13.734 86.353 16.8346C86.353 19.9352 88.8055 22.448 91.8299 22.448C94.8543 22.448 97.3069 19.9352 97.3069 16.8346C97.3069 13.734 94.8543 11.2212 91.8299 11.2212ZM91.8299 20.0735C91.187 20.0888 90.554 19.9119 90.012 19.5654C89.4699 19.2189 89.0433 18.7186 88.7866 18.1283C88.5299 17.5379 88.4548 16.8844 88.5708 16.2511C88.6868 15.6179 88.9888 15.0336 89.438 14.5729C89.8873 14.1122 90.4636 13.796 91.0932 13.6647C91.7228 13.5333 92.3773 13.5928 92.973 13.8356C93.5687 14.0783 94.0786 14.4932 94.4376 15.0274C94.7966 15.5616 94.9885 16.1908 94.9887 16.8346C94.9948 17.6808 94.666 18.495 94.074 19.0991C93.4821 19.7032 92.6752 20.048 91.8299 20.0582V20.0735Z" fill="url(#paint5_linear)"/>
<path d="M111.005 20.0867H72.6553V29.1676H111.005V20.0867Z" fill="#008AAD"/>
<path d="M91.8301 11.2212C90.77 11.2212 89.7337 11.5359 88.8523 12.1255C87.9709 12.715 87.2839 13.553 86.8782 14.5335C86.4725 15.5139 86.3664 16.5927 86.5732 17.6335C86.78 18.6744 87.2905 19.6304 88.0401 20.3808C88.7897 21.1312 89.7447 21.6422 90.7844 21.8493C91.8241 22.0563 92.9018 21.95 93.8812 21.5439C94.8606 21.1378 95.6977 20.4501 96.2866 19.5677C96.8756 18.6854 97.1899 17.648 97.1899 16.5868C97.1899 15.1637 96.6252 13.799 95.6201 12.7927C94.6149 11.7865 93.2516 11.2212 91.8301 11.2212ZM91.8301 19.6836C91.2187 19.6828 90.6213 19.5007 90.1133 19.1603C89.6052 18.8199 89.2093 18.3364 88.9755 17.771C88.7418 17.2055 88.6806 16.5833 88.7998 15.9831C88.919 15.3828 89.2131 14.8314 89.6451 14.3984C90.0772 13.9654 90.6277 13.6702 91.2271 13.5502C91.8266 13.4301 92.4481 13.4906 93.0133 13.7239C93.5785 13.9572 94.0619 14.3529 94.4026 14.8611C94.7433 15.3693 94.9259 15.9671 94.9274 16.5791C94.9271 16.9859 94.8468 17.3887 94.691 17.7645C94.5352 18.1402 94.3069 18.4815 94.0193 18.769C93.7317 19.0564 93.3903 19.2842 93.0146 19.4395C92.639 19.5948 92.2365 19.6745 91.8301 19.6739V19.6836Z" fill="#008AAD"/>
<g opacity="0.5">
<path opacity="0.5" d="M3.95544 141.593H3.23389V145.69H3.95544V141.593Z" fill="#47E6B1"/>
<path opacity="0.5" d="M5.64209 144.004V143.282H1.54881V144.004H5.64209Z" fill="#47E6B1"/>
</g>
<g opacity="0.5">
<path opacity="0.5" d="M87.6668 0H86.9453V4.09767H87.6668V0Z" fill="#47E6B1"/>
<path opacity="0.5" d="M89.3525 2.40908V1.68677L85.2592 1.68677V2.40908H89.3525Z" fill="#47E6B1"/>
</g>
<path opacity="0.5" d="M148.277 148.415C148.078 148.329 147.918 148.172 147.827 147.974C147.736 147.777 147.72 147.553 147.784 147.345C147.794 147.313 147.8 147.281 147.803 147.247C147.809 147.152 147.784 147.058 147.731 146.978C147.679 146.898 147.603 146.837 147.514 146.804C147.424 146.771 147.327 146.768 147.235 146.795C147.144 146.822 147.064 146.877 147.006 146.953C146.987 146.98 146.97 147.009 146.957 147.04C146.87 147.239 146.713 147.399 146.516 147.491C146.319 147.582 146.095 147.597 145.888 147.534C145.856 147.523 145.823 147.517 145.79 147.514C145.695 147.509 145.6 147.534 145.521 147.586C145.441 147.638 145.38 147.714 145.347 147.804C145.314 147.893 145.311 147.991 145.338 148.082C145.365 148.174 145.42 148.254 145.496 148.312C145.523 148.332 145.552 148.348 145.583 148.362C145.782 148.448 145.942 148.605 146.033 148.802C146.124 149 146.139 149.224 146.076 149.432C146.066 149.463 146.059 149.496 146.057 149.53C146.051 149.625 146.076 149.719 146.128 149.799C146.18 149.879 146.256 149.94 146.346 149.973C146.435 150.006 146.533 150.009 146.624 149.982C146.715 149.955 146.796 149.9 146.853 149.823C146.873 149.797 146.89 149.768 146.903 149.737C146.989 149.538 147.146 149.377 147.343 149.286C147.54 149.195 147.764 149.18 147.972 149.243C148.003 149.254 148.036 149.26 148.07 149.263C148.165 149.268 148.259 149.243 148.339 149.191C148.418 149.139 148.479 149.062 148.512 148.973C148.545 148.884 148.548 148.786 148.522 148.694C148.495 148.603 148.439 148.523 148.363 148.465C148.336 148.445 148.308 148.429 148.277 148.415Z" fill="#4D8AF0"/>
<path opacity="0.5" d="M26.5303 109.021C26.3312 108.934 26.171 108.777 26.0801 108.58C25.9891 108.383 25.9738 108.159 26.0371 107.951C26.0473 107.919 26.0537 107.886 26.0563 107.853C26.062 107.758 26.037 107.663 25.9849 107.584C25.9328 107.504 25.8565 107.443 25.7671 107.41C25.6778 107.377 25.5802 107.374 25.4889 107.401C25.3975 107.427 25.3172 107.483 25.2599 107.559C25.2399 107.586 25.2232 107.615 25.21 107.646C25.1233 107.845 24.9665 108.005 24.7695 108.096C24.5724 108.187 24.3487 108.203 24.1411 108.139C24.1093 108.129 24.0765 108.123 24.0432 108.12C23.9482 108.114 23.8538 108.139 23.7741 108.192C23.6944 108.244 23.6335 108.32 23.6006 108.41C23.5677 108.499 23.5644 108.597 23.5912 108.688C23.618 108.78 23.6736 108.86 23.7496 108.917C23.7763 108.937 23.8053 108.954 23.8359 108.967C24.035 109.054 24.1952 109.211 24.2861 109.408C24.3771 109.606 24.3924 109.829 24.3291 110.037C24.3189 110.069 24.3125 110.102 24.3099 110.135C24.3042 110.23 24.3292 110.325 24.3813 110.405C24.4334 110.484 24.5098 110.545 24.5991 110.578C24.6884 110.611 24.786 110.615 24.8774 110.588C24.9687 110.561 25.049 110.505 25.1063 110.429C25.1263 110.402 25.143 110.373 25.1562 110.343C25.2429 110.144 25.3997 109.983 25.5968 109.892C25.7938 109.801 26.0175 109.786 26.2251 109.849C26.2569 109.859 26.2898 109.866 26.323 109.868C26.4181 109.874 26.5124 109.849 26.5921 109.797C26.6718 109.745 26.7327 109.668 26.7656 109.579C26.7985 109.489 26.8018 109.392 26.775 109.3C26.7482 109.209 26.6926 109.128 26.6166 109.071C26.5899 109.051 26.5609 109.034 26.5303 109.021Z" fill="#FDD835"/>
<path opacity="0.5" d="M127.934 13.0975C127.735 13.0107 127.575 12.8538 127.484 12.6565C127.393 12.4592 127.378 12.2353 127.441 12.0274C127.451 11.9956 127.458 11.9627 127.46 11.9294C127.466 11.8343 127.441 11.7398 127.389 11.66C127.337 11.5802 127.26 11.5194 127.171 11.4864C127.082 11.4534 126.984 11.4501 126.893 11.477C126.801 11.5038 126.721 11.5594 126.664 11.6355C126.644 11.6623 126.627 11.6913 126.614 11.722C126.527 11.9212 126.37 12.0816 126.173 12.1726C125.976 12.2637 125.753 12.279 125.545 12.2157C125.513 12.2055 125.48 12.199 125.447 12.1965C125.352 12.1907 125.258 12.2158 125.178 12.2679C125.098 12.3201 125.037 12.3965 125.004 12.4859C124.971 12.5754 124.968 12.673 124.995 12.7645C125.022 12.8559 125.077 12.9363 125.153 12.9937C125.18 13.0137 125.209 13.0305 125.24 13.0437C125.439 13.1304 125.599 13.2873 125.69 13.4847C125.781 13.682 125.796 13.9058 125.733 14.1137C125.723 14.1455 125.716 14.1784 125.714 14.2117C125.708 14.3068 125.733 14.4013 125.785 14.4811C125.837 14.5609 125.914 14.6218 126.003 14.6547C126.092 14.6877 126.19 14.691 126.281 14.6642C126.373 14.6373 126.453 14.5817 126.51 14.5056C126.53 14.4789 126.547 14.4498 126.56 14.4192C126.647 14.2199 126.803 14.0595 127.001 13.9685C127.198 13.8775 127.421 13.8621 127.629 13.9254C127.661 13.9357 127.694 13.9421 127.727 13.9447C127.822 13.9504 127.916 13.9253 127.996 13.8732C128.076 13.8211 128.136 13.7446 128.169 13.6552C128.202 13.5658 128.206 13.4681 128.179 13.3766C128.152 13.2852 128.096 13.2048 128.02 13.1474C127.994 13.1274 127.965 13.1107 127.934 13.0975Z" fill="#FDD835"/>
<path opacity="0.5" d="M156.251 61.859C157.049 61.859 157.696 61.2113 157.696 60.4124C157.696 59.6135 157.049 58.9658 156.251 58.9658C155.453 58.9658 154.806 59.6135 154.806 60.4124C154.806 61.2113 155.453 61.859 156.251 61.859Z" fill="#F55F44"/>
<path opacity="0.5" d="M44.5808 144.884C45.3788 144.884 46.0258 144.236 46.0258 143.438C46.0258 142.639 45.3788 141.991 44.5808 141.991C43.7827 141.991 43.1357 142.639 43.1357 143.438C43.1357 144.236 43.7827 144.884 44.5808 144.884Z" fill="#F55F44"/>
<path opacity="0.5" d="M141.411 93.1261C142.209 93.1261 142.856 92.4784 142.856 91.6795C142.856 90.8806 142.209 90.2329 141.411 90.2329C140.613 90.2329 139.966 90.8806 139.966 91.6795C139.966 92.4784 140.613 93.1261 141.411 93.1261Z" fill="#F55F44"/>
<path opacity="0.5" d="M17.0266 19.9554C17.8246 19.9554 18.4716 19.3077 18.4716 18.5088C18.4716 17.7099 17.8246 17.0623 17.0266 17.0623C16.2285 17.0623 15.5815 17.7099 15.5815 18.5088C15.5815 19.3077 16.2285 19.9554 17.0266 19.9554Z" fill="#4D8AF0"/>
<path opacity="0.5" d="M1.74874 59.4166C2.54681 59.4166 3.19377 58.7689 3.19377 57.97C3.19377 57.1711 2.54681 56.5234 1.74874 56.5234C0.950673 56.5234 0.303711 57.1711 0.303711 57.97C0.303711 58.7689 0.950673 59.4166 1.74874 59.4166Z" fill="#47E6B1"/>
<defs>
<linearGradient id="paint0_linear" x1="78.4668" y1="128.724" x2="54.9312" y2="19.1504" gradientUnits="userSpaceOnUse">
<stop stop-color="#808080" stop-opacity="0.25"/>
<stop offset="0.54" stop-color="#808080" stop-opacity="0.12"/>
<stop offset="1" stop-color="#808080" stop-opacity="0.1"/>
</linearGradient>
<linearGradient id="paint1_linear" x1="21072.5" y1="-2746.93" x2="20973.8" y2="-3206.2" gradientUnits="userSpaceOnUse">
<stop stop-color="#808080" stop-opacity="0.25"/>
<stop offset="0.54" stop-color="#808080" stop-opacity="0.12"/>
<stop offset="1" stop-color="#808080" stop-opacity="0.1"/>
</linearGradient>
<linearGradient id="paint2_linear" x1="6153.44" y1="313.322" x2="6015.82" y2="-327.392" gradientUnits="userSpaceOnUse">
<stop stop-color="#808080" stop-opacity="0.25"/>
<stop offset="0.54" stop-color="#808080" stop-opacity="0.12"/>
<stop offset="1" stop-color="#808080" stop-opacity="0.1"/>
</linearGradient>
<linearGradient id="paint3_linear" x1="38654.4" y1="79659.1" x2="38654.4" y2="14271.7" gradientUnits="userSpaceOnUse">
<stop stop-color="#808080" stop-opacity="0.25"/>
<stop offset="0.54" stop-color="#808080" stop-opacity="0.12"/>
<stop offset="1" stop-color="#808080" stop-opacity="0.1"/>
</linearGradient>
<linearGradient id="paint4_linear" x1="18756.4" y1="1503.69" x2="18756.4" y2="1033.93" gradientUnits="userSpaceOnUse">
<stop stop-color="#808080" stop-opacity="0.25"/>
<stop offset="0.54" stop-color="#808080" stop-opacity="0.12"/>
<stop offset="1" stop-color="#808080" stop-opacity="0.1"/>
</linearGradient>
<linearGradient id="paint5_linear" x1="7391.03" y1="1991.52" x2="7391.03" y2="1335.42" gradientUnits="userSpaceOnUse">
<stop stop-color="#808080" stop-opacity="0.25"/>
<stop offset="0.54" stop-color="#808080" stop-opacity="0.12"/>
<stop offset="1" stop-color="#808080" stop-opacity="0.1"/>
</linearGradient>
</defs>
</svg>
