<svg xmlns="http://www.w3.org/2000/svg" viewBox="0 0 583.01 247.26"><defs><style>.cls-1{fill:#9ea3a6;}.cls-2{fill:#b82619;}.cls-3{fill:#010101;}</style></defs><g id="Layer_2" data-name="Layer 2"><g id="Warstwa_1" data-name="Warstwa 1"><path class="cls-1" d="M293.59,16.85h12l4.64,18,4.59-18h12V46.41h-7.48V23.86L313.6,46.41h-6.77l-5.76-22.55V46.41h-7.48Z"/><path class="cls-1" d="M332.42,16.85h8.21v5.58h-8.21Zm0,8.14h8.21V46.41h-8.21Z"/><path class="cls-1" d="M345.87,25h7.64v3.49A11.37,11.37,0,0,1,357,25.43a9.13,9.13,0,0,1,4.27-.92,7,7,0,0,1,5.34,2c1.28,1.35,1.92,3.43,1.92,6.26V46.41h-8.24V34.63a4.27,4.27,0,0,0-.75-2.85,2.67,2.67,0,0,0-2.1-.84A3,3,0,0,0,355,32.07c-.61.75-.92,2.1-.92,4V46.41h-8.21Z"/><path class="cls-1" d="M373.71,16.85h8.21v5.58h-8.21Zm0,8.14h8.21V46.41h-8.21Z"/><path class="cls-1" d="M385.71,40.46l8.15-.77a4,4,0,0,0,1.41,2.08,4.16,4.16,0,0,0,2.42.62,4.1,4.1,0,0,0,2.56-.7,1.58,1.58,0,0,0,.7-1.31A1.5,1.5,0,0,0,400,39a16.5,16.5,0,0,0-3.52-.84,37.57,37.57,0,0,1-5.94-1.38,6.24,6.24,0,0,1-2.8-2.15,5.56,5.56,0,0,1-1.14-3.44,5.65,5.65,0,0,1,1.23-3.65,7.31,7.31,0,0,1,3.38-2.28,17.83,17.83,0,0,1,5.79-.76,20.51,20.51,0,0,1,5.66.58,7.39,7.39,0,0,1,3,1.82,9.58,9.58,0,0,1,2,3.33L400,31a2.65,2.65,0,0,0-1-1.51,4.14,4.14,0,0,0-2.34-.64,3.31,3.31,0,0,0-2,.49,1.48,1.48,0,0,0-.63,1.2,1.27,1.27,0,0,0,.8,1.18,13.17,13.17,0,0,0,3.51.73,24.09,24.09,0,0,1,6.09,1.29,6.66,6.66,0,0,1,3.05,2.35,5.78,5.78,0,0,1,1.06,3.37,6.59,6.59,0,0,1-1.12,3.6,7.51,7.51,0,0,1-3.53,2.79,16.93,16.93,0,0,1-6.56,1q-5.86,0-8.36-1.67A7.59,7.59,0,0,1,385.71,40.46Z"/><path class="cls-1" d="M422.28,16.85V25h4.52v6h-4.52v7.59a4.18,4.18,0,0,0,.26,1.81,1.5,1.5,0,0,0,1.42.68,9,9,0,0,0,2.54-.52l.6,5.66a26.29,26.29,0,0,1-5.68.67,9.8,9.8,0,0,1-4.52-.79,4.77,4.77,0,0,1-2.15-2.38,14.17,14.17,0,0,1-.69-5.19V31h-3V25h3V21.06Z"/><path class="cls-1" d="M454.48,37.74H438a5.28,5.28,0,0,0,1.07,2.94,3.86,3.86,0,0,0,3.1,1.39,4.7,4.7,0,0,0,2.3-.6,5.61,5.61,0,0,0,1.43-1.35l8.09.74a11.64,11.64,0,0,1-4.48,4.63,16.31,16.31,0,0,1-7.52,1.4,15.34,15.34,0,0,1-6.69-1.2,9.84,9.84,0,0,1-4.05-3.81,11.58,11.58,0,0,1-1.6-6.14,10.75,10.75,0,0,1,3.22-8.12q3.21-3.11,8.88-3.11A15.81,15.81,0,0,1,449,25.9a9.44,9.44,0,0,1,4,4,14.73,14.73,0,0,1,1.39,6.88Zm-8.35-3.93a5.48,5.48,0,0,0-1.28-3.41,4,4,0,0,0-5.85.52,5.65,5.65,0,0,0-.95,2.89Z"/><path class="cls-1" d="M458.33,25H466V28.5a8.29,8.29,0,0,1,2.29-3.13,4.84,4.84,0,0,1,2.91-.86,8.74,8.74,0,0,1,4,1.13l-2.54,5.85a6.38,6.38,0,0,0-2.3-.61,2.82,2.82,0,0,0-2.5,1.33q-1.28,1.88-1.27,7v7.18h-8.25Z"/><path class="cls-1" d="M476.15,40.46l8.15-.77a4,4,0,0,0,1.41,2.08,4.16,4.16,0,0,0,2.42.62,4.1,4.1,0,0,0,2.56-.7,1.59,1.59,0,0,0,.71-1.31,1.5,1.5,0,0,0-.93-1.37,16.66,16.66,0,0,0-3.53-.84A37.57,37.57,0,0,1,481,36.79a6.3,6.3,0,0,1-2.8-2.15,5.56,5.56,0,0,1-1.14-3.44,5.65,5.65,0,0,1,1.23-3.65,7.29,7.29,0,0,1,3.39-2.28,17.76,17.76,0,0,1,5.78-.76,20.46,20.46,0,0,1,5.66.58,7.32,7.32,0,0,1,3,1.82,9.43,9.43,0,0,1,2,3.33l-7.78.76a2.66,2.66,0,0,0-1-1.51,4.14,4.14,0,0,0-2.34-.64,3.33,3.33,0,0,0-2,.49,1.48,1.48,0,0,0-.63,1.2,1.26,1.26,0,0,0,.81,1.18,13,13,0,0,0,3.5.73,24.09,24.09,0,0,1,6.09,1.29,6.74,6.74,0,0,1,3.06,2.35,5.84,5.84,0,0,1,1.05,3.37,6.66,6.66,0,0,1-1.11,3.6,7.61,7.61,0,0,1-3.53,2.79,17,17,0,0,1-6.56,1c-3.92,0-6.7-.56-8.36-1.67A7.56,7.56,0,0,1,476.15,40.46Z"/><path class="cls-1" d="M512.73,16.85V25h4.51v6h-4.51v7.59A4,4,0,0,0,513,40.4a1.49,1.49,0,0,0,1.41.68,9,9,0,0,0,2.54-.52l.6,5.66a26.29,26.29,0,0,1-5.68.67,9.83,9.83,0,0,1-4.52-.79,4.71,4.71,0,0,1-2.14-2.38,13.91,13.91,0,0,1-.7-5.19V31h-3V25h3V21.06Z"/><path class="cls-1" d="M518.75,25h7.94l3.43,13.49L534.46,25h7.42l4.53,13.52L549.86,25h7.89l-7.89,21.42h-7.3l-4.34-12.89L534,46.41h-7.34Z"/><path class="cls-1" d="M558.41,35.76a10.67,10.67,0,0,1,3.31-8.07q3.3-3.18,8.93-3.18,6.44,0,9.72,3.73a10.81,10.81,0,0,1,2.64,7.4,10.72,10.72,0,0,1-3.28,8.09q-3.27,3.17-9.06,3.16a12.72,12.72,0,0,1-8.35-2.62A10.51,10.51,0,0,1,558.41,35.76Zm8.23,0A6.4,6.4,0,0,0,567.8,40a3.78,3.78,0,0,0,5.82,0,6.66,6.66,0,0,0,1.14-4.33,6.28,6.28,0,0,0-1.15-4.14,3.55,3.55,0,0,0-2.84-1.36,3.71,3.71,0,0,0-3,1.38A6.38,6.38,0,0,0,566.64,35.74Z"/><path class="cls-2" d="M294.53,58.92H306V73l12-14.06h15.3L319.79,73,334,96.14H319.82L312,80.83,306,87.05v9.09h-11.5Z"/><path class="cls-2" d="M364.16,96.14h-9.65V91.77a14.17,14.17,0,0,1-4.35,3.83,11.58,11.58,0,0,1-5.39,1.14,8.77,8.77,0,0,1-6.69-2.55q-2.43-2.55-2.43-7.85V69.18H346V84a5.53,5.53,0,0,0,.93,3.61,3.34,3.34,0,0,0,2.64,1.06,3.77,3.77,0,0,0,3-1.42c.78-1,1.18-2.65,1.18-5.1v-13h10.33Z"/><path class="cls-2" d="M370.79,58.92h10.35V96.14H370.79Z"/><path class="cls-2" d="M400.21,58.92V69.18h5.68v7.56h-5.68v9.55a5.13,5.13,0,0,0,.33,2.28,1.87,1.87,0,0,0,1.77.86,11.27,11.27,0,0,0,3.2-.66l.76,7.14a33.44,33.44,0,0,1-7.15.83,12.46,12.46,0,0,1-5.69-1,6,6,0,0,1-2.7-3,17.5,17.5,0,0,1-.88-6.53V76.74H386V69.18h3.81v-5Z"/><path class="cls-2" d="M439.23,96.14h-9.65V91.77a14.19,14.19,0,0,1-4.36,3.83,11.58,11.58,0,0,1-5.39,1.14,8.8,8.8,0,0,1-6.69-2.55q-2.42-2.55-2.42-7.85V69.18H421.1V84a5.47,5.47,0,0,0,.94,3.61,3.33,3.33,0,0,0,2.64,1.06,3.75,3.75,0,0,0,3-1.42q1.19-1.43,1.18-5.1v-13h10.34Z"/><path class="cls-2" d="M445.6,69.18h9.67v4.41a10.56,10.56,0,0,1,2.88-4,6.13,6.13,0,0,1,3.67-1.07,10.88,10.88,0,0,1,5,1.42l-3.2,7.36a8.06,8.06,0,0,0-2.89-.76,3.57,3.57,0,0,0-3.15,1.67c-1.07,1.58-1.6,4.52-1.6,8.84v9H445.6Z"/><path class="cls-2" d="M468.62,69.18h10.9l5.56,17.94,5.17-17.94h10.18L489.73,98q-1.83,4.93-3.73,6.66c-1.79,1.62-4.52,2.44-8.19,2.44a60.59,60.59,0,0,1-6.9-.61l-.82-7.21a16.5,16.5,0,0,0,5,.71,4.82,4.82,0,0,0,2.95-.84,6.35,6.35,0,0,0,1.91-3Z"/><path class="cls-1" d="M293.81,107.87h13.57a16.13,16.13,0,0,1,6.48,1.09,10.58,10.58,0,0,1,4.09,3.12,13.16,13.16,0,0,1,2.34,4.74,22.16,22.16,0,0,1,.72,5.73,19.86,19.86,0,0,1-1.08,7.35,12.06,12.06,0,0,1-3,4.37,9.77,9.77,0,0,1-4.11,2.35,21.17,21.17,0,0,1-5.45.81H293.81Zm9.14,6.69v16.15h2.24a9.5,9.5,0,0,0,4.07-.63,4.35,4.35,0,0,0,1.89-2.22,13.84,13.84,0,0,0,.69-5.13c0-3.13-.51-5.28-1.53-6.43s-2.72-1.74-5.08-1.74Z"/><path class="cls-1" d="M324.34,116H344.2v4.79l-10.81,11h11.47v5.61H323.53V132.1l10.27-10.48h-9.46Z"/><path class="cls-1" d="M348.53,107.87h8.21v5.58h-8.21Zm0,8.15h8.21v21.41h-8.21Z"/><path class="cls-1" d="M385.75,128.76H369.3a5.28,5.28,0,0,0,1.07,2.94,3.86,3.86,0,0,0,3.1,1.39,4.7,4.7,0,0,0,2.3-.6,5.61,5.61,0,0,0,1.43-1.35l8.09.74a11.58,11.58,0,0,1-4.48,4.63,16.31,16.31,0,0,1-7.52,1.4,15.34,15.34,0,0,1-6.69-1.2,9.84,9.84,0,0,1-4.05-3.81,11.58,11.58,0,0,1-1.6-6.14,10.75,10.75,0,0,1,3.22-8.12q3.21-3.11,8.88-3.11a15.81,15.81,0,0,1,7.26,1.39,9.44,9.44,0,0,1,4.05,4,14.76,14.76,0,0,1,1.39,6.88Zm-8.35-3.93a5.48,5.48,0,0,0-1.28-3.41,4,4,0,0,0-5.85.52,5.65,5.65,0,0,0-.95,2.89Z"/><path class="cls-1" d="M412.06,107.87v29.56h-7.68v-3.17a10.53,10.53,0,0,1-2.94,2.72,8.41,8.41,0,0,1-4,.93,7.63,7.63,0,0,1-6.68-3.33,13.8,13.8,0,0,1-2.31-8.08c0-3.55.85-6.26,2.55-8.15a8.35,8.35,0,0,1,6.48-2.82,9,9,0,0,1,3.48.65,7.84,7.84,0,0,1,2.77,1.93V107.87Zm-8.23,18.79a5.66,5.66,0,0,0-1.06-3.76,3.43,3.43,0,0,0-2.71-1.24,3,3,0,0,0-2.39,1.19,6.34,6.34,0,0,0-1,4,6,6,0,0,0,1,3.84,3,3,0,0,0,2.47,1.22,3.31,3.31,0,0,0,2.62-1.23A6.16,6.16,0,0,0,403.83,126.66Z"/><path class="cls-1" d="M416.13,116H436v4.79l-10.8,11h11.47v5.61H415.33V132.1l10.26-10.48h-9.46Z"/><path class="cls-1" d="M440.33,107.87h8.2v5.58h-8.2Zm0,8.15h8.2v21.41h-8.2Z"/><path class="cls-1" d="M469.74,129l7.81.89a11.13,11.13,0,0,1-2.12,4.22,9.87,9.87,0,0,1-3.76,2.77,14.77,14.77,0,0,1-5.82,1,21.55,21.55,0,0,1-5.67-.63,10,10,0,0,1-3.91-2.06,10.61,10.61,0,0,1-2.56-3.33,14.2,14.2,0,0,1,.21-10.58,10,10,0,0,1,2.25-2.89,10.39,10.39,0,0,1,2.95-1.9,16.28,16.28,0,0,1,6.15-1c3.49,0,6.16.63,8,1.88a9.84,9.84,0,0,1,3.86,5.48l-7.72,1a3.54,3.54,0,0,0-1.32-2.07,4.32,4.32,0,0,0-2.57-.69,4.13,4.13,0,0,0-3.3,1.46A6.59,6.59,0,0,0,461,127a5.77,5.77,0,0,0,1.25,4,4.15,4.15,0,0,0,3.19,1.37,4.39,4.39,0,0,0,2.71-.83A4.92,4.92,0,0,0,469.74,129Z"/><path class="cls-1" d="M491.21,107.87V116h4.52v6h-4.52v7.59a4,4,0,0,0,.27,1.81,1.48,1.48,0,0,0,1.41.68,9,9,0,0,0,2.54-.52l.6,5.67a26.88,26.88,0,0,1-5.68.66,10,10,0,0,1-4.52-.78,4.84,4.84,0,0,1-2.15-2.39,14.17,14.17,0,0,1-.69-5.19V122h-3v-6h3v-3.94Z"/><path class="cls-1" d="M497.24,116h7.94l3.43,13.48L513,116h7.42l4.53,13.51L528.35,116h7.88l-7.88,21.41h-7.3l-4.34-12.89-4.19,12.89h-7.34Z"/><path class="cls-1" d="M545.63,123l-7.84-.83a8.6,8.6,0,0,1,1.28-3.23,7,7,0,0,1,2.41-2,10.22,10.22,0,0,1,3.1-1,26,26,0,0,1,4.28-.34,34.54,34.54,0,0,1,5.92.41,7.6,7.6,0,0,1,3.73,1.73,6.07,6.07,0,0,1,1.66,2.57,9.37,9.37,0,0,1,.6,3.17v9.46a11.26,11.26,0,0,0,.19,2.37,10.93,10.93,0,0,0,.84,2.19h-7.7a8.38,8.38,0,0,1-.61-1.26,9.69,9.69,0,0,1-.28-1.36A10.59,10.59,0,0,1,550,137a13.33,13.33,0,0,1-5.06.89,8.47,8.47,0,0,1-5.81-1.77,5.63,5.63,0,0,1-2-4.38,5.76,5.76,0,0,1,1.43-4q1.44-1.57,5.29-2.34c3.07-.62,5.07-1,6-1.3a27,27,0,0,0,2.91-1,2.89,2.89,0,0,0-.63-2.12,3.17,3.17,0,0,0-2.2-.6,5.67,5.67,0,0,0-3,.65A3.49,3.49,0,0,0,545.63,123Zm7.12,4.32c-1.13.4-2.31.75-3.53,1.06a8.32,8.32,0,0,0-3.17,1.31,2.09,2.09,0,0,0-.68,1.52,2,2,0,0,0,.67,1.58,2.86,2.86,0,0,0,2,.61,5.16,5.16,0,0,0,2.55-.66,4.14,4.14,0,0,0,1.67-1.62,5.43,5.43,0,0,0,.5-2.49Z"/><path class="cls-1" d="M293.75,149.16h8.53l11.13,16.35V149.16H322v29.56h-8.61l-11.07-16.23v16.23h-8.59Z"/><path class="cls-1" d="M335,164.24l-7.84-.82a8.82,8.82,0,0,1,1.28-3.24,7.06,7.06,0,0,1,2.41-2.05,10,10,0,0,1,3.11-1,24.77,24.77,0,0,1,4.27-.35,33.45,33.45,0,0,1,5.93.42,7.63,7.63,0,0,1,3.73,1.72,6,6,0,0,1,1.65,2.57,9.4,9.4,0,0,1,.61,3.18v9.45a11.26,11.26,0,0,0,.19,2.37,10.22,10.22,0,0,0,.83,2.19h-7.7a7.26,7.26,0,0,1-.6-1.26,8.18,8.18,0,0,1-.28-1.36,10.71,10.71,0,0,1-3.21,2.21,13.18,13.18,0,0,1-5.06.89,8.51,8.51,0,0,1-5.82-1.77,5.64,5.64,0,0,1-2-4.38,5.71,5.71,0,0,1,1.43-4q1.42-1.57,5.28-2.34c3.08-.62,5.07-1,6-1.3a26.83,26.83,0,0,0,2.9-1,2.91,2.91,0,0,0-.62-2.11,3.11,3.11,0,0,0-2.2-.61,5.65,5.65,0,0,0-3,.65A3.54,3.54,0,0,0,335,164.24Zm7.12,4.32c-1.13.4-2.3.76-3.53,1.07a8.09,8.09,0,0,0-3.16,1.31,2.08,2.08,0,0,0,0,3.09,2.85,2.85,0,0,0,2,.62A5.11,5.11,0,0,0,340,174a4,4,0,0,0,1.68-1.62,5.44,5.44,0,0,0,.49-2.49Z"/><path class="cls-1" d="M355.17,157.31h7.68v3.5a8.37,8.37,0,0,1,2.29-3.13,4.8,4.8,0,0,1,2.91-.86,8.7,8.7,0,0,1,4,1.13l-2.54,5.85a6.33,6.33,0,0,0-2.3-.61,2.85,2.85,0,0,0-2.5,1.33c-.84,1.25-1.27,3.59-1.27,7v7.18h-8.24Z"/><path class="cls-1" d="M373.07,168.07a10.68,10.68,0,0,1,3.31-8.07q3.3-3.18,8.93-3.18,6.42,0,9.71,3.73a11.65,11.65,0,0,1-.63,15.5c-2.18,2.1-5.21,3.15-9.06,3.15a12.7,12.7,0,0,1-8.35-2.62A10.51,10.51,0,0,1,373.07,168.07Zm8.22,0a6.5,6.5,0,0,0,1.16,4.24,3.69,3.69,0,0,0,2.92,1.37,3.64,3.64,0,0,0,2.91-1.35,6.69,6.69,0,0,0,1.14-4.34,6.29,6.29,0,0,0-1.15-4.14,3.57,3.57,0,0,0-2.84-1.36,3.72,3.72,0,0,0-3,1.38A6.38,6.38,0,0,0,381.29,168.05Z"/><path class="cls-1" d="M424.16,149.16v29.56h-7.68v-3.17a10.26,10.26,0,0,1-3,2.72,8.37,8.37,0,0,1-3.95.93,7.62,7.62,0,0,1-6.68-3.33,13.8,13.8,0,0,1-2.31-8.08c0-3.55.85-6.26,2.55-8.15a8.35,8.35,0,0,1,6.48-2.82,9,9,0,0,1,3.48.65,7.84,7.84,0,0,1,2.77,1.93V149.16ZM415.93,168a5.61,5.61,0,0,0-1.07-3.76,3.39,3.39,0,0,0-2.7-1.24,3,3,0,0,0-2.4,1.19,6.43,6.43,0,0,0-1,4,6,6,0,0,0,1,3.84,3.06,3.06,0,0,0,2.47,1.22,3.3,3.3,0,0,0,2.62-1.23A6.14,6.14,0,0,0,415.93,168Z"/><path class="cls-1" d="M428.15,168.07a10.68,10.68,0,0,1,3.31-8.07q3.3-3.18,8.93-3.18,6.42,0,9.71,3.73a11.65,11.65,0,0,1-.63,15.5q-3.27,3.15-9.06,3.15a12.7,12.7,0,0,1-8.35-2.62A10.51,10.51,0,0,1,428.15,168.07Zm8.23,0a6.51,6.51,0,0,0,1.15,4.24,3.69,3.69,0,0,0,2.92,1.37,3.64,3.64,0,0,0,2.91-1.35A6.69,6.69,0,0,0,444.5,168a6.29,6.29,0,0,0-1.15-4.14,3.55,3.55,0,0,0-2.84-1.36,3.69,3.69,0,0,0-3,1.38A6.38,6.38,0,0,0,436.38,168.05Z"/><path class="cls-1" d="M453.55,157.31h7.94l3.43,13.48,4.34-13.48h7.42l4.53,13.51,3.45-13.51h7.89l-7.89,21.41h-7.3L473,165.83l-4.19,12.89h-7.34Z"/><path class="cls-1" d="M518.23,170.05H501.78a5.25,5.25,0,0,0,1.07,2.94,3.88,3.88,0,0,0,3.1,1.39,4.67,4.67,0,0,0,2.3-.6,5.61,5.61,0,0,0,1.43-1.35l8.09.74a11.58,11.58,0,0,1-4.48,4.63,16.18,16.18,0,0,1-7.52,1.4,15.34,15.34,0,0,1-6.69-1.2,9.76,9.76,0,0,1-4-3.81,11.47,11.47,0,0,1-1.61-6.14,10.76,10.76,0,0,1,3.22-8.12q3.21-3.1,8.88-3.11a15.94,15.94,0,0,1,7.26,1.39,9.46,9.46,0,0,1,4.05,4,14.69,14.69,0,0,1,1.39,6.87Zm-8.35-3.93a5.42,5.42,0,0,0-1.28-3.41,4,4,0,0,0-5.85.52,5.65,5.65,0,0,0-.95,2.89Z"/><path class="cls-1" d="M537.93,157.31h7.68v20.22l0,.95a9,9,0,0,1-.86,3.84,8.15,8.15,0,0,1-2.27,3,9,9,0,0,1-3.61,1.63,22.2,22.2,0,0,1-5,.51q-6.46,0-8.86-1.94a6.3,6.3,0,0,1-2.41-5.18c0-.27,0-.63,0-1.09l8,.91a2.55,2.55,0,0,0,.93,1.53,3.88,3.88,0,0,0,2.28.63,3.46,3.46,0,0,0,2.65-1,4.9,4.9,0,0,0,.87-3.31v-3.24a8,8,0,0,1-6.51,3.08,8.11,8.11,0,0,1-6.93-3.75,12,12,0,0,1-1.88-7q0-5,2.42-7.62a8.23,8.23,0,0,1,6.33-2.62,8.78,8.78,0,0,1,4.12.85,8.89,8.89,0,0,1,3,2.8Zm-7.72,10.38a5.14,5.14,0,0,0,1,3.44,3.51,3.51,0,0,0,5.18,0,5.13,5.13,0,0,0,1-3.5,5.3,5.3,0,0,0-1.08-3.58,3.42,3.42,0,0,0-2.67-1.24,3.1,3.1,0,0,0-2.51,1.14A6,6,0,0,0,530.21,167.69Z"/><path class="cls-1" d="M549.56,168.07a10.68,10.68,0,0,1,3.31-8.07q3.3-3.18,8.93-3.18,6.44,0,9.72,3.73a11.66,11.66,0,0,1-.64,15.5q-3.27,3.15-9.06,3.15a12.72,12.72,0,0,1-8.35-2.62A10.54,10.54,0,0,1,549.56,168.07Zm8.23,0a6.45,6.45,0,0,0,1.16,4.24,3.79,3.79,0,0,0,5.82,0,6.69,6.69,0,0,0,1.14-4.34,6.29,6.29,0,0,0-1.15-4.14,3.55,3.55,0,0,0-2.84-1.36,3.71,3.71,0,0,0-3,1.38A6.38,6.38,0,0,0,557.79,168.05Z"/><path class="cls-2" d="M293.45,198.74h8.21v5.59h-8.21Zm0,8.15h8.21V228.3h-8.21Z"/><path class="cls-2" d="M318.28,215.81l10.57-.66a8,8,0,0,0,1.4,3.92,5.88,5.88,0,0,0,4.9,2.18,5.41,5.41,0,0,0,3.67-1.12,3.34,3.34,0,0,0,1.28-2.58,3.28,3.28,0,0,0-1.22-2.5c-.82-.74-2.72-1.43-5.69-2.09q-7.31-1.64-10.42-4.36a8.77,8.77,0,0,1-3.14-6.94,9.36,9.36,0,0,1,1.61-5.24,10.66,10.66,0,0,1,4.83-3.87,22.5,22.5,0,0,1,8.84-1.41q6.88,0,10.5,2.56t4.31,8.15l-10.47.62a4.91,4.91,0,0,0-5.45-4.64,4.52,4.52,0,0,0-2.92.82,2.54,2.54,0,0,0-1,2,2,2,0,0,0,.81,1.55,9.27,9.27,0,0,0,3.73,1.32,46.86,46.86,0,0,1,10.43,3.18,11,11,0,0,1,4.59,4,10.08,10.08,0,0,1,1.43,5.32,11.37,11.37,0,0,1-1.91,6.38,12,12,0,0,1-5.34,4.42,21.55,21.55,0,0,1-8.66,1.51q-9.17,0-12.7-3.53A13.87,13.87,0,0,1,318.28,215.81Z"/><path class="cls-2" d="M355.87,237.61v-36h9.34v3.85a12.49,12.49,0,0,1,3.56-3.29,10.13,10.13,0,0,1,4.83-1.15,9.34,9.34,0,0,1,8.08,4,16.51,16.51,0,0,1,2.86,9.88q0,6.5-3.12,9.92a10.18,10.18,0,0,1-7.87,3.42,10.73,10.73,0,0,1-4.2-.79,10,10,0,0,1-3.4-2.33v12.44Zm10-22.86a6.85,6.85,0,0,0,1.3,4.59,4.14,4.14,0,0,0,3.28,1.49,3.62,3.62,0,0,0,2.92-1.43q1.19-1.44,1.18-4.87a7.22,7.22,0,0,0-1.23-4.65,3.77,3.77,0,0,0-3-1.48,4,4,0,0,0-3.19,1.5Q365.88,211.39,365.88,214.75Z"/><path class="cls-2" d="M388.09,214.75a13,13,0,0,1,4-9.82q4-3.85,10.87-3.86,7.81,0,11.82,4.54a14.17,14.17,0,0,1-.78,18.84q-4,3.84-11,3.84-6.27,0-10.15-3.19A12.8,12.8,0,0,1,388.09,214.75Zm10,0a7.86,7.86,0,0,0,1.41,5.15,4.6,4.6,0,0,0,7.08,0q1.4-1.64,1.39-5.27a7.68,7.68,0,0,0-1.4-5,4.34,4.34,0,0,0-3.45-1.65,4.55,4.55,0,0,0-3.61,1.67A7.78,7.78,0,0,0,398.1,214.73Z"/><path class="cls-2" d="M422.91,201.66h9.35v4.26a10.23,10.23,0,0,1,2.78-3.81,5.91,5.91,0,0,1,3.54-1,10.6,10.6,0,0,1,4.83,1.37l-3.09,7.11a7.75,7.75,0,0,0-2.79-.73,3.44,3.44,0,0,0-3,1.62q-1.55,2.28-1.55,8.53v8.73h-10Z"/><path class="cls-2" d="M459.65,191.75v9.91h5.49V209h-5.49v9.22a4.81,4.81,0,0,0,.32,2.2,1.8,1.8,0,0,0,1.71.84,11.09,11.09,0,0,0,3.09-.64l.74,6.89a32.53,32.53,0,0,1-6.92.81,12,12,0,0,1-5.49-1,5.75,5.75,0,0,1-2.61-2.9,16.9,16.9,0,0,1-.85-6.3V209H446v-7.31h3.68v-4.78Z"/><path class="cls-2" d="M497.34,227.7H488v-4.22a13.5,13.5,0,0,1-4.21,3.7,11.12,11.12,0,0,1-5.21,1.11,8.47,8.47,0,0,1-6.46-2.47q-2.34-2.46-2.34-7.59V201.66h10V216a5.24,5.24,0,0,0,.91,3.48,3.19,3.19,0,0,0,2.55,1,3.65,3.65,0,0,0,2.93-1.37q1.14-1.38,1.14-4.93V201.66h10Z"/><rect class="cls-1" x="506.85" y="215.13" width="13" height="13"/><path class="cls-3" d="M182,114.36a.63.63,0,0,0-.18.89L202.14,146a.64.64,0,1,0,1.07-.71l-20.3-30.7A.64.64,0,0,0,182,114.36Z"/><path class="cls-3" d="M60.77,126.49a.65.65,0,0,0-.76.5L51.88,166.9a.63.63,0,0,0,.5.75l.12,0a.64.64,0,0,0,.63-.52l8.14-39.9A.65.65,0,0,0,60.77,126.49Z"/><path class="cls-3" d="M31.94,81.1H32a.64.64,0,0,0,.07-1.28c-9.35-1.12-14.53-1.48-24.82-.25a.66.66,0,0,0-.56.72.64.64,0,0,0,.72.55C17.62,79.63,22.49,80,31.94,81.1Z"/><path class="cls-3" d="M167.53,127a.64.64,0,1,0-1.25.26l8.13,39.9a.65.65,0,0,0,.63.52l.13,0a.64.64,0,0,0,.5-.75Z"/><path class="cls-3" d="M227.46,112.33v0a.5.5,0,0,0-.09-.23l-.06-.08c-3-6.11-8.13-10.78-16.34-14.92,14-1.64,16.36-3.33,16.14-10.44a.67.67,0,0,0-.66-.62.64.64,0,0,0-.6.49c-1.67,2-8.55,1.7-14.25,1.29,6-1.15,12.36-3.2,15.29-7.41a.64.64,0,0,0-.14-.87c-3.87-3-8.78-4.64-13.67-5.54,8.44-5.92,7.81-10.4,7.42-13.12-.05-.32-.09-.62-.11-.89a.64.64,0,0,0-.6-.59.62.62,0,0,0-.66.51c-.35,1.7-5.82,4.48-11.19,5.89,4.5-3.45,9.51-8.16,9.95-12.29a.64.64,0,0,0-.49-.69c-5-1.2-9.93-.2-13.27.62,4.78-5.79,5.39-12.53,3.53-15.18a.63.63,0,0,0-.55-.27.64.64,0,0,0-.52.31A26.43,26.43,0,0,1,199.26,46c3.29-4.84,5.75-10.75,6-14.78a.64.64,0,0,0-.59-.68c-5.09-.34-9.54,1.74-16.12,5.58a44.81,44.81,0,0,0,4.94-8.17c.55-1.19,2.3-5.15,1.58-5.9a.69.69,0,0,0-.45-.2h-.47c-10,0-20.12,4.9-26.94,9.05-8,4.88-15.59,11.3-19.77,16.77-13.54,17.74-9.8,27-7.56,30.13a10,10,0,0,0,10,4.26,6.38,6.38,0,0,1-.66,5.3c-2.59,4-9.76,5.41-13.94,5.87a22.55,22.55,0,0,0-1.74-9.84c2.06-.78,3.21-2.08,3.26-3.73a.67.67,0,0,0-.18-.46,14.25,14.25,0,0,1-4.35-8.92c0-.25-.08-.5-.13-.76a4.11,4.11,0,0,0,2.52-1.54.64.64,0,0,0-.15-.87c-2.64-2-1.73-8.13-.85-14.06.37-2.53.76-5.15.89-7.52a13.53,13.53,0,0,0-2.66-9.34c2.17-1.08,3.14-2.73,3.18-5.38a.62.62,0,0,0-.19-.47.69.69,0,0,0-.47-.18,43.61,43.61,0,0,1-5.13-.17,4,4,0,0,0,1-4.55.63.63,0,0,0-.74-.42,13.85,13.85,0,0,1-2.45.14l-1.59,0c2.77-7.71,4.1-10.56,9.12-19.85a.64.64,0,0,0-1-.77,8.6,8.6,0,0,1-4,1.78c-1.64.41-3.31.83-4.19,2.19a2.51,2.51,0,0,0-3.77-.18,3.18,3.18,0,0,0-.5-.79,3.06,3.06,0,0,0-2.54-1.11c.27-1.54-1-2.61-2.06-3.5A7,7,0,0,1,114.38.4a.64.64,0,0,0-.62-.4.63.63,0,0,0-.58.44A4.7,4.7,0,0,1,111,2.72c-1.36.92-2.88,1.94-2.26,4.53a4.37,4.37,0,0,0-.79-.07,2.59,2.59,0,0,0-2,.75,1.66,1.66,0,0,0-.23.31,2.53,2.53,0,0,0-1.89-1,2.75,2.75,0,0,0-1.88.84c-.94-1.87-2.75-2.12-4.38-2.34a5.9,5.9,0,0,1-3.37-1.17.64.64,0,0,0-1,.8c2.57,4.38,5.25,10.71,8,18.81-1.73.6-3.56,2.86-4,5.94-1.87.11-4.75.68-6.47,3C89.26,35.15,89,38,90,41.69a.62.62,0,0,0,.49.46.64.64,0,0,0,.63-.23c.83-1.05,3.33-2.18,5.74-2.2a5.36,5.36,0,0,1,3.5,1.08l-1,.47c-4.07,1.91-8.29,3.88-11.37.66a.64.64,0,0,0-.64-.18.66.66,0,0,0-.45.49c-.55,2.75,1.42,5.44,4.69,6.4h.06a9.76,9.76,0,0,0,2,.2c3.29,0,6.45-1.49,9.52-3a5.69,5.69,0,0,0,.54,3,.62.62,0,0,0,.53.29.49.49,0,0,0,.24-.05c1.31-.52,2.33-.92,3.25-1.18l.14.08a6.26,6.26,0,0,1,4,7.14c-.59,4.34-4.47,9.4-9.69,10a.69.69,0,0,0-.5.34.67.67,0,0,0,0,.6,8.8,8.8,0,0,0,3.26,3c-2.25,3.73-3.76,5.88-9.87,8.43a.64.64,0,0,0-.35.37c-.38,1,.43,2.25,1.53,3.16-2.78,3-3.68,6.84-3.88,12.11-4.17-.46-11.41-1.83-14-5.89A6.4,6.4,0,0,1,77.64,82a10,10,0,0,0,10-4.26c2.24-3.15,6-12.4-7.56-30.13C71.89,36.9,50.36,21.54,32.91,21.8a.72.72,0,0,0-.46.2c-.71.75,1,4.71,1.59,5.9A44.81,44.81,0,0,0,39,36.07c-6.58-3.84-11-5.93-16.11-5.59a.65.65,0,0,0-.6.68c.24,4,2.71,10,6,14.79A26.15,26.15,0,0,1,21,38.28a.64.64,0,0,0-.52-.31.63.63,0,0,0-.55.27c-1.87,2.65-1.27,9.38,3.52,15.17-3.35-.82-8.28-1.81-13.27-.62a.64.64,0,0,0-.49.69c.44,4.14,5.45,8.85,10,12.3-5.37-1.41-10.84-4.19-11.19-5.89A.64.64,0,0,0,7.15,60c0,.27-.07.56-.11.88-.39,2.73-1,7.2,7.43,13.13-4.89.9-9.8,2.57-13.66,5.54a.64.64,0,0,0-.14.87C3.6,84.6,9.91,86.65,15.93,87.8c-5.65.4-12.49.73-14.21-1.26A.65.65,0,0,0,1.11,86a.63.63,0,0,0-.65.57.53.53,0,0,0,0,.28C.28,93.78,2.7,95.45,16.57,97.08c-8.35,4.21-13.49,9-16.51,15.25a.64.64,0,0,0,.3.85.58.58,0,0,0,.28.07H.7a17.4,17.4,0,0,0,9.2,2.17,55.4,55.4,0,0,0,14.17-2.28L20.68,115c-7.48,4.09-14.54,8-19.16,6.63a.65.65,0,0,0-.79.44.63.63,0,0,0,0,.47.36.36,0,0,0,0,.09c1.3,2.82,3,5.57,6.32,6.65a10.59,10.59,0,0,0,3.23.47c3.89,0,9-1.69,15.33-5.1-7.14,11.27-10.48,22.18-10.16,33.07a.65.65,0,0,0,0,.2.64.64,0,0,0,.64.58h.06c7-.63,15.73-8.43,23.37-17.66-.36.64-.73,1.28-1.09,1.93-5,8.84-11.27,19.84-14.4,20.25a.64.64,0,0,0-.3,1.14c5.25,4,12.5-.53,15.19-3.36a82.67,82.67,0,0,0,7.79-10c-.38,6.54-.2,21.84,2.9,26.67a.64.64,0,0,0,.54.29.69.69,0,0,0,.34-.09c5-3.09,11.16-12.14,15.38-25.94-.77,5.64-1.38,9.7-2.51,11.22a.64.64,0,0,0,.51,1l.17,0c7.1-1.95,9.2-10,10.89-16.52.25-1,.5-1.93.75-2.81a7.79,7.79,0,0,0,1.15,1.21.64.64,0,0,0,.56.13c3.41-.79,10.47-9.88,11.71-21.91a17.52,17.52,0,0,0,6.6,1.32,16.93,16.93,0,0,0,6.06-1.13.72.72,0,0,0,.21-.12h.31a37.84,37.84,0,0,0,.93,4.55c-9.1-1.35-10.82.56-15.06,10-3.11,7-6.77,11.47-10.3,12.71a.66.66,0,0,0-.4.43.63.63,0,0,0,.13.59,3.37,3.37,0,0,0,1.83,1,13,13,0,0,1-4.1,4.94.65.65,0,0,0-.3.56.66.66,0,0,0,.32.54,5.41,5.41,0,0,0,2,.55,15.71,15.71,0,0,1-5.3,3.5.65.65,0,0,0-.4,1,4.5,4.5,0,0,0,1.65,1.23,19.52,19.52,0,0,1-5.52,3.76.64.64,0,0,0-.37.52.63.63,0,0,0,.27.58c1.2.86,3.86,1.59,7,1.69l-5.5,7.17a.65.65,0,0,0,.17.94l.21.13-5.43,5.14a.66.66,0,0,0-.16.68.64.64,0,0,0,.55.42l.15,0-5,4a.6.6,0,0,0-.22.32.65.65,0,0,0,.34,1l-3.81,3.12c-1.26,1-2.34,1.46-3.21,1.26l-9.55-2.09c-.63-2-2.64-3.34-5.26-3.4a6.61,6.61,0,0,0-6.7,4.48,6.78,6.78,0,0,0-2.46,5,8.53,8.53,0,0,0,2.67,6.84.65.65,0,0,0,1.05-.29c.69-2.3,1.11-3,2.14-4,3.78,1,5.5-.18,7-1.29a12.73,12.73,0,0,0,5,1.7,36.61,36.61,0,0,1-5.3,3c-2.14-.76-5.18-.26-6.6,1.92-1.12,1.73-1.68,6,.32,7.79a5.7,5.7,0,0,0,1.61,4.13,7.39,7.39,0,0,0,5.66,2.24.6.6,0,0,0,.53-.32.67.67,0,0,0,0-.63,4.26,4.26,0,0,1,0-4.57c1.91-1,2.44-2.36,2.69-4.73l.27-.08a19.69,19.69,0,0,0,6.62-2.72,24.7,24.7,0,0,0-.62,3.33,5.61,5.61,0,0,0-4.53,3.68,7.78,7.78,0,0,0,.49,5.94,3.74,3.74,0,0,0,1.4,1.37,5,5,0,0,0,2.9,3.7A7.41,7.41,0,0,0,59,227a.64.64,0,0,0,.31-.51.62.62,0,0,0-.25-.54c-1.07-.81-1.55-1.55-2-3.86,1.7-1.43,2.15-3.55,1.37-6.47a13.44,13.44,0,0,0,3-5.8c.21-.65.42-1.32.67-2a6.26,6.26,0,0,0,3.42.63,5.62,5.62,0,0,0,3,3.71c0,.07,0,.15,0,.22a5.25,5.25,0,0,1-1.53,4,.61.61,0,0,0-.21.63.64.64,0,0,0,.47.48,7.93,7.93,0,0,0,6-1.69,6.15,6.15,0,0,0,2.18-4.93,5.25,5.25,0,0,0,1.64-5.72c-.77-2.08-2.92-3.13-5.75-2.79-1.9.07-2.89-.46-3.2-1a1.17,1.17,0,0,1,.13-1.23c.37-.56,1-1.32,2.28-2.85l.56-.67c3.32-4.17,14.39-16.75,17.61-19.39A13.82,13.82,0,0,0,97,182.84a.64.64,0,0,0,.5-.1.63.63,0,0,0,.26-.43c0-.31-.1-.56-.34-1a10.2,10.2,0,0,1-1.52-4.56,3.7,3.7,0,0,0,1.47.33h.18a.64.64,0,0,0,.52-.19.63.63,0,0,0,.18-.51c0-.17,0-.35-.07-.55-.38-3.12-1.26-10.26,7.2-20.67A56.63,56.63,0,0,1,99.64,179a.65.65,0,0,0,.07.67.61.61,0,0,0,.63.24,9.81,9.81,0,0,0,4.59-1.73c-1.09,4.46-3.17,7.77-5.63,8.81a4.59,4.59,0,0,1-4.55-.65.64.64,0,0,0-1,.31,7.35,7.35,0,0,0,1.92,8.45,8.42,8.42,0,0,0,8.45,1.24c-2.91,5.85-8.94,7.82-12.36,6.86-2.43-.69-3.51-2.7-2.94-5.53a.64.64,0,0,0-.16-.56.69.69,0,0,0-.56-.2c-4.37.65-7.12,3.18-7.54,7a9.68,9.68,0,0,0,4.08,8.94,10.88,10.88,0,0,0-6.93,11.48,11.72,11.72,0,0,0,10.82,10.55c6.79.52,13.86-4.3,18-9.79.07,14.07,3.43,18.1,6.4,21.67l.26.31a.64.64,0,0,0,1,0l.4-.48c3-3.61,6.4-7.67,6.49-21.5,4.22,5.61,10.72,9.56,16.41,9.81a11.91,11.91,0,0,0,12.35-10,10.7,10.7,0,0,0-6.84-12,9.71,9.71,0,0,0,4.07-8.94c-.42-3.77-3.17-6.3-7.54-7a.67.67,0,0,0-.55.2.62.62,0,0,0-.17.56c.57,2.83-.51,4.84-2.94,5.53-3.41.95-9.45-1-12.36-6.86a8.42,8.42,0,0,0,8.45-1.24,7.36,7.36,0,0,0,1.92-8.45.64.64,0,0,0-1-.31,4.65,4.65,0,0,1-4.63.63c-2.52-1.06-4.64-4.36-5.73-8.79a9.81,9.81,0,0,0,4.59,1.73.61.61,0,0,0,.63-.24.65.65,0,0,0,.07-.67,55.19,55.19,0,0,1-5.57-23.71c8.34,10.26,7.58,17.11,7.21,20.47,0,.25-.05.47-.07.68a.63.63,0,0,0,.7.69h.17a3.93,3.93,0,0,0,1.46-.33,10,10,0,0,1-1.5,4.55,1.56,1.56,0,0,0-.36,1,.61.61,0,0,0,.27.44.6.6,0,0,0,.5.11,14,14,0,0,0,8.14-5.49c4.83,3.95,9.63,9.85,14.27,15.56,1.57,1.92,3.18,3.91,4.75,5.75.46.61.63,1.09.5,1.43-.21.6-1.33,1.13-3.31,1.59-4.48-.4-5.73,2.3-6.06,3.49-.71,2.58.49,5.8,2.54,7a6.59,6.59,0,0,0,2.87,4.18,7.58,7.58,0,0,0,5.34,1.16.64.64,0,0,0,.27-1.11,5.25,5.25,0,0,1-1.53-4c0-.08,0-.15,0-.22a5.61,5.61,0,0,0,3-3.71,6.26,6.26,0,0,0,3.42-.63c.25.68.46,1.35.67,2a13.44,13.44,0,0,0,3,5.8c-.78,2.92-.34,5,1.37,6.47-.4,2.31-.88,3-1.94,3.86a.63.63,0,0,0,.05,1.05,7.41,7.41,0,0,0,6.74.42,5,5,0,0,0,2.91-3.71,3.76,3.76,0,0,0,1.39-1.36,7.8,7.8,0,0,0,.49-5.94,5.62,5.62,0,0,0-4.54-3.68,22.79,22.79,0,0,0-.71-3.32,20.81,20.81,0,0,0,6.68,2.7l.32.09c.24,2.37.77,3.73,2.68,4.73a4.25,4.25,0,0,1,0,4.57.64.64,0,0,0,0,.63.61.61,0,0,0,.54.32,7.43,7.43,0,0,0,5.65-2.23,5.77,5.77,0,0,0,1.61-4.14c2-1.75,1.45-6.06.32-7.79-1.42-2.18-4.46-2.67-6.59-1.92a29.52,29.52,0,0,1-5-3,11.53,11.53,0,0,0,4.7-1.7c1.48,1.11,3.21,2.28,7,1.29,1,.95,1.45,1.68,2.15,4a.63.63,0,0,0,1,.28,8.5,8.5,0,0,0,2.67-6.83,6.78,6.78,0,0,0-2.46-5,6.57,6.57,0,0,0-6.69-4.48c-2.63.06-4.65,1.38-5.27,3.4l-9.55,2.09c-.87.2-2-.23-3.21-1.26L167,192a.65.65,0,0,0,.33-.43.62.62,0,0,0,.07-.19.61.61,0,0,0-.23-.62l-5-4,.15,0a.63.63,0,0,0,.54-.42.64.64,0,0,0-.16-.68l-5.42-5.14.21-.13a.65.65,0,0,0,.17-.94l-5.58-7.16c3.5,0,6.5-.77,7.79-1.7a.63.63,0,0,0,.27-.58.66.66,0,0,0-.37-.52,19.67,19.67,0,0,1-5.52-3.76h0a4.66,4.66,0,0,0,1.64-1.23.64.64,0,0,0,.06-.6.63.63,0,0,0-.46-.39,15.71,15.71,0,0,1-5.3-3.5,5.46,5.46,0,0,0,2-.55.66.66,0,0,0,.32-.54.65.65,0,0,0-.3-.56,13,13,0,0,1-4.1-4.94,3.37,3.37,0,0,0,1.83-1,.64.64,0,0,0-.27-1c-4.76-1.68-8.5-8.68-10.3-12.71-4.24-9.46-6-11.37-15.08-10,.43-1.35.84-2.81,1.22-4.46l.06,0a17,17,0,0,0,6.07,1.13,17.63,17.63,0,0,0,6.62-1.32c1.23,12,8.29,21.12,11.7,21.91a.64.64,0,0,0,.56-.13,6.94,6.94,0,0,0,1.15-1.21c.26.88.5,1.83.76,2.82,1.69,6.49,3.79,14.56,10.88,16.51l.17,0a.63.63,0,0,0,.53-.28.65.65,0,0,0,0-.74c-1.13-1.52-1.73-5.58-2.51-11.21C165.84,165.5,172,174.55,177,177.64a.67.67,0,0,0,.34.09.65.65,0,0,0,.54-.29c3.09-4.83,3.27-20.13,2.89-26.67a84.07,84.07,0,0,0,7.79,10c2.69,2.83,9.94,7.37,15.2,3.36a.64.64,0,0,0-.3-1.14c-3.14-.41-9.38-11.41-14.4-20.25L188,140.9c7.63,9.19,16.33,16.95,23.31,17.58h.06a.64.64,0,0,0,.64-.58v-.07c.35-10.92-3-21.87-10.14-33.17,6.36,3.39,11.41,5.07,15.29,5.07a10.59,10.59,0,0,0,3.23-.47c3.35-1.08,5-3.83,6.32-6.64v0a.63.63,0,0,0-.7-1c-4.62,1.32-11.68-2.55-19.15-6.64-1.28-.7-2.57-1.41-3.86-2.1a56.3,56.3,0,0,0,14.69,2.42,17.6,17.6,0,0,0,9-2.06l.15,0a.66.66,0,0,0,.27-.06A.65.65,0,0,0,227.46,112.33ZM209.93,89c2.81.2,5.76.42,8.43.42,3.11,0,5.82-.29,7.47-1.25-.14,5-2.48,6.31-17,7.89-.72-.25-1.51-.55-2.34-.86A63.51,63.51,0,0,0,199,92.7a10.75,10.75,0,0,0,3.55-3.59l.65-.08,2.69-.33C207.12,88.76,208.49,88.86,209.93,89Zm-4.09-1.56a1,1,0,0,0-.24,0l-2.55.32-.64.07c-2.94-3.41-9.17-7.61-14.65-8.64a21.93,21.93,0,0,0,7.49-4.56s0,0,.05,0c6.07-.55,21-1.09,30.15,5.53C221.64,84.9,212.59,86.53,205.84,87.41Zm10.67-33.5c-1,4.65-8.88,11-15.49,15.09a.63.63,0,0,0-.2.88.65.65,0,0,0,.88.21c.86-.54,2.18-1.39,3.71-2.47h.11c4.52-.77,11.21-3.24,13.81-5.8.31,2.69,0,6.54-8.1,11.87a70,70,0,0,0-14.75-.43,15.44,15.44,0,0,0,3.07-7.18.64.64,0,0,0-.37-.7,20.51,20.51,0,0,0-13.83-1c5.83-4.32,11.84-7.62,16.72-9.19a.76.76,0,0,0,.3,0l1-.25C206.4,54.16,211.44,52.88,216.51,53.91ZM203.93,31.74c-.55,4.68-3.89,11.63-7.91,16.38a.56.56,0,0,0-.24.13c-1.22,1.11-1.81,1.73-2.33,2.29a22.94,22.94,0,0,1-3.13,2.79.64.64,0,0,0,.39,1.15.67.67,0,0,0,.4-.14,23.16,23.16,0,0,0,3.27-2.93c.45-.47.94-1,1.86-1.84a.79.79,0,0,0,.29-.11c.31-.23.64-.46,1-.69,2.91-2,6.82-4.75,9.55-8.85,1,3-.3,9-5.05,13.93a60.72,60.72,0,0,0-16.12,8.55,17.7,17.7,0,0,0,3.28-12.19.64.64,0,0,0-.55-.55c-6.42-.87-11.12.09-14.82,3.12a17.14,17.14,0,0,0,.53-2.58.7.7,0,0,0,.19-.15,47.47,47.47,0,0,1,11.22-10.94.69.69,0,0,0,.34-.09C193.91,34.34,198.7,31.62,203.93,31.74ZM135.24,94.47c4.37-.46,12.14-1.93,15.07-6.47a7.61,7.61,0,0,0,.8-6.36A4.72,4.72,0,0,0,154.47,78a.64.64,0,0,0-.1-.52.63.63,0,0,0-.45-.27,5.75,5.75,0,0,1-5-3.45,7.21,7.21,0,0,1,.93-6.92,5.09,5.09,0,0,1,4.93-2,.65.65,0,0,0,.71-.79c-1-3.84,0-6.87,2.53-8.11s6.47-.5,9.2,3.15a.64.64,0,0,0,.77.2,7.76,7.76,0,0,1,8.22,1.43c2.16,2,2.63,5.07,1.33,8.53a.66.66,0,0,0,.32.8c2.81,1.38,4.51,3.67,4.68,6.28.18,2.84-1.44,5.68-4.34,7.61a.64.64,0,0,0-.19.88,10.09,10.09,0,0,1,1.42,8.16A8.08,8.08,0,0,1,175.22,98a.61.61,0,0,0-.35.46c-1.3,7.21-2.47,9.79-10.49,10.41a.63.63,0,0,0-.55.4c-2,5.08-6,5.73-11.36,5.13a.64.64,0,0,0-.57.22c-3,3.55-7.08,4.4-10.52,2.16a.65.65,0,0,0-.8.08c-1.92,1.91-7.87,3.66-12.75,2.2a25.73,25.73,0,0,0,.59-4.25,3.46,3.46,0,0,0,.94-.29.61.61,0,0,0,.3-.33,22.93,22.93,0,0,0,1.08-3.25h0c2.23-.51,4.58-1,7.07-1.48,10.06-2,21.47-4.31,28.91-9.55,5.67-4,7.92-15.3,5.76-21.76,3-.4,4.78-1.15,5.65-2.36a.65.65,0,0,0,.08-.59,9.2,9.2,0,0,0-4.44-5.36l-.52-.35c.86-2.12.06-5.51-.23-6.58a.64.64,0,0,0-.61-.47A9.78,9.78,0,0,0,167,64c-1.25-2.18-3.87-5.13-7-5.7a.67.67,0,0,0-.58.2c-1.3,1.37-1.82,5.55-1.53,8.76a10.23,10.23,0,0,0-5.67,2.41.63.63,0,0,0-.18.71A10.13,10.13,0,0,0,157,75.76a14.06,14.06,0,0,0-.12,8.29.65.65,0,0,0,.61.42.52.52,0,0,0,.21,0,.55.55,0,0,0,.22-.14,13.76,13.76,0,0,0,4.35-1.43c1.52,10.86-10.44,13.55-28.47,17.45.24-.94.44-1.91.65-3.15h0a.74.74,0,0,0,.65-.54.78.78,0,0,0,0-.16c0-.2,0-.54.06-1s.05-.65.07-1Zm-36,18.86a23.2,23.2,0,0,1-1.9-7.27,7.26,7.26,0,0,0,3.77-1.34,9.47,9.47,0,0,0,12.45.12,10.67,10.67,0,0,0,6.6,2.4,11,11,0,0,0,6.45-2.21,7.55,7.55,0,0,0,3.65,1,25.06,25.06,0,0,1-1.65,7.42c-.77.25-2.67.35-7.25-1a.65.65,0,0,0-.57.1,11.25,11.25,0,0,1-14.11,0,.67.67,0,0,0-.55-.1C101.55,113.68,99.84,113.62,99.21,113.33ZM55.67,63.85A8.58,8.58,0,0,1,60,65.27a20.77,20.77,0,0,0-1,2.94,11.2,11.2,0,0,0-3.54.78A10.78,10.78,0,0,1,55.67,63.85ZM61.2,77.73h0l1.87-5.2,4.61-.19c1.78,2.76,2.9,7.45,2,10.78C66.64,82.62,62.52,80.32,61.2,77.73Zm72.29,24,.06,0c18.59-4,32-6.92,29.9-19.46a12.79,12.79,0,0,0,3.26-2.74c.75,3.58,1.64,12.14-5.34,16.94-4.79,3.24-13.37,5-22.45,6.95-2.19.46-4.44.94-6.64,1.44.46-1.24.81-2.21,1.1-3.1ZM157.88,83c-.89-3.37.27-8.08,2.07-10.79l4.5.17,1.9,5.34C165,80.3,160.84,82.56,157.88,83ZM131.5,106.19a.69.69,0,0,0,.32,0c2.43-.56,4.94-1.08,7.36-1.59,9.21-1.94,17.91-3.77,22.91-7.15,8.08-5.56,6.52-15.59,5.73-18.91a28.61,28.61,0,0,1,3.41-.2c2.11,5.88,0,16.86-5.2,20.53-7.23,5.08-18.49,7.34-28.43,9.34-2.3.46-4.48.89-6.56,1.36A30.85,30.85,0,0,0,131.5,106.19ZM171.87,77a.64.64,0,0,0-.3.11,31.83,31.83,0,0,0-4,.22l-1.94-5.43,2.49-2.51h.13a9.44,9.44,0,0,1,3.7.87.55.55,0,0,0,.28.11c.31.21.6.41.89.59a8,8,0,0,1,3.81,4.39C176.13,76.11,174.47,76.65,171.87,77Zm.29-8.09a11.71,11.71,0,0,0-3.54-.78,21.66,21.66,0,0,0-1-2.93A8.62,8.62,0,0,1,172,63.74,10.72,10.72,0,0,1,172.16,68.87Zm-5.85-3.5a.08.08,0,0,0,0,0,20.16,20.16,0,0,1,1,2.89l-2.79,2.81L160.14,71a6.24,6.24,0,0,1-.88-2.75,2,2,0,0,1,0-.24,1.41,1.41,0,0,0,0-.2c-.42-3.23.14-6.83.92-8.1C163.2,60.43,165.59,63.79,166.31,65.37ZM158,68.55a7.43,7.43,0,0,0,.91,2.89,14.6,14.6,0,0,0-1.54,3.09,8.91,8.91,0,0,1-4-4.17A8.93,8.93,0,0,1,158,68.55Zm-27.1,36.21a6.68,6.68,0,0,1-4.1-1,.64.64,0,0,0-.69,0c-4,3-8.46,2.94-12.24-.29a.65.65,0,0,0-.89.06,7.4,7.4,0,0,1-6.63,2.24c-2.28-.31-4.15-1.41-4.58-2.26a.61.61,0,0,0-.44-.34.63.63,0,0,0-.54.14,6.6,6.6,0,0,1-5,1.47l-.24-.86c-.33-1.15-.58-2-.78-2.85a.57.57,0,0,0-.08-.34,28.32,28.32,0,0,1-.62-4.25,15.37,15.37,0,0,0,6-4.79,14.25,14.25,0,0,0,5.9,6.41.63.63,0,0,0,.58.06A15.52,15.52,0,0,0,114.2,92a15.21,15.21,0,0,0,6.94,6.41.59.59,0,0,0,.23,0,.71.71,0,0,0,.21,0c3-1,4.39-3,6.08-5.82a17,17,0,0,0,5.53,4.25A33.44,33.44,0,0,1,130.92,104.76Zm-36.54-.48.09.33c-2-.44-4-.87-5.93-1.28-9.05-1.9-17.6-3.7-22.37-6.92-7-4.81-6.09-13.33-5.34-16.92a12.6,12.6,0,0,0,3.26,2.78C62,94.67,75.27,97.62,93.63,101.59,93.83,102.38,94.07,103.22,94.38,104.28ZM70.16,74.53a15.14,15.14,0,0,0-1.47-3,7.85,7.85,0,0,0,.92-3,9,9,0,0,1,4.53,1.8A9,9,0,0,1,70.16,74.53Zm-1.85-6.77a.67.67,0,0,0,.07.37l0,.22a6.29,6.29,0,0,1-.88,2.71L63,71.24,60.14,69a.51.51,0,0,0,0-.13,18.44,18.44,0,0,1,1.2-3.5.58.58,0,0,0,0-.14.86.86,0,0,0,0-.22c.89-1.69,3.16-4.61,6-5.32C68.17,60.93,68.73,64.53,68.31,67.76ZM55.38,70.44a.65.65,0,0,0,.29-.11,7.14,7.14,0,0,1,3.17-.82l0,0L61.88,72,60,77.29a31.49,31.49,0,0,0-4.14-.21h-.11c-2.6-.3-4.26-.84-5.06-1.65A8,8,0,0,1,54.51,71Zm.93,7.91a28.22,28.22,0,0,1,3.41.2c-.79,3.32-2.36,13.34,5.73,18.91,5,3.37,13.65,5.19,22.83,7.13,2.45.51,5,1,7.43,1.61a.69.69,0,0,0,.32,0,30.55,30.55,0,0,0,.57,3.41c-2.11-.47-4.33-.92-6.67-1.38-9.93-2-21.19-4.26-28.42-9.34C56.29,95.2,54.2,84.22,56.31,78.35ZM122,16.87a1.27,1.27,0,0,1-1,.62h-1a3.1,3.1,0,0,1-1.47-1.74c-.14-.87.65-1.92,1.65-3.25l.24-.32a7.76,7.76,0,0,0,1,2A3.11,3.11,0,0,1,122,16.87ZM106.93,8.81c.41-.44,1.37-.46,2.61-.05a.65.65,0,0,0,.67-.18.64.64,0,0,0,.13-.67c-1-2.49-.06-3.14,1.4-4.13A7.48,7.48,0,0,0,113.81,2a11.23,11.23,0,0,0,1.93,1.91c1.54,1.3,2.13,1.88,1.2,3.23a.64.64,0,0,0,.07.82.65.65,0,0,0,.81.08,1.73,1.73,0,0,1,2.36.33,1.76,1.76,0,0,1,.44,1.38.13.13,0,0,0,0,.06l-.06.11v0l0,0c-.43.64-.86,1.22-1.29,1.78-1.13,1.51-2.12,2.82-1.88,4.23a3,3,0,0,0,.77,1.52c-1.07,0-2,0-2.17,0-.76-.08-1.17-.3-1.41-1.35a6.85,6.85,0,0,1,.32-1.48c.56-2,1.4-5.14-.28-7.53a.65.65,0,0,0-.68-.25.63.63,0,0,0-.67.25c-1.69,2.4-.85,5.49-.29,7.54a8.65,8.65,0,0,1,.32,1.41v.06c-.24,1.05-.65,1.27-1.42,1.35-.18,0-1.27,0-2.44,0a2.42,2.42,0,0,0,.45-1.11c.21-1.37-.75-2.61-1.68-3.82a7.48,7.48,0,0,1-1.39-2.26,1,1,0,0,0-.12-.23.68.68,0,0,0,0-.21A1.41,1.41,0,0,1,106.93,8.81Zm7-.33a7.71,7.71,0,0,1,0,4.75A7.71,7.71,0,0,1,113.89,8.48Zm-7,9a.67.67,0,0,0-.14-.09c-2.06-1-1.62-2-.83-3.66.19-.41.39-.84.55-1.29.21.3.44.6.67.89.76,1,1.55,2,1.43,2.84a2.12,2.12,0,0,1-1,1.31h-.67ZM97.44,7.06c2,.28,3.23.53,3.72,2.48a.63.63,0,0,0,.5.47.66.66,0,0,0,.65-.26c.52-.76,1.08-1.18,1.57-1.18s1.15.59,1.56,1.57a.38.38,0,0,0,.09.15.65.65,0,0,0,0,.24,5.35,5.35,0,0,1-.74,2.67c-.62,1.32-1.35,2.9-.07,4.28a3.05,3.05,0,0,1-2.28-1.24.64.64,0,1,0-.94.88,4.45,4.45,0,0,0,3.81,1.67h2.23c2.8,0,4.18,0,4.45-.05a2.63,2.63,0,0,0,1.92-1,2.61,2.61,0,0,0,1.91,1c.27,0,1.7,0,4.58.05a.51.51,0,0,0,.25.06h0a2.42,2.42,0,0,0,.47-.05h1.74c1.9,0,2.42-.5,3.08-1.29l.33-.38a.64.64,0,1,0-.93-.88c-.14.16-.27.3-.38.44a1.93,1.93,0,0,1-1.88.83l0-.07a4.28,4.28,0,0,0-.58-4c-.88-1.32-1.15-2.33-.83-3.07a.54.54,0,0,0,0-.21l0,0c.39-.63,1-1.36,1.65-1.36s1.31.77,1.63,1.23a.62.62,0,0,0,.63.27.67.67,0,0,0,.51-.46c.39-1.42,1.66-1.81,3.72-2.32a19.09,19.09,0,0,0,2.46-.75,109.2,109.2,0,0,0-8.23,18.37c-.27,0-.55,0-.85,0-1.82,0-4-.21-6.55-.47A114.79,114.79,0,0,0,105.08,24c-.87,0-1.74,0-2.58.05A116.32,116.32,0,0,0,95.43,6.67,13.93,13.93,0,0,0,97.44,7.06ZM91.91,47.41c-1.78-.53-3.52-1.85-3.8-3.68,3.55,2.55,7.9.51,11.79-1.3l1.82-.84.06,0,.07,0a12.39,12.39,0,0,1,8.79-.24,1.77,1.77,0,0,1,1,2.05c0,.14-.13.35-.59.19-2.62-1.22-5.32-1.94-7.4.72a.66.66,0,0,0-.27.06l-.63.31C99.25,46.34,95.58,48.12,91.91,47.41Zm12.61-2.12c1.33-1.89,2.93-2,6.07-.57l.06,0a1.63,1.63,0,0,0,2.25-1,3.09,3.09,0,0,0-1.82-3.69,13.69,13.69,0,0,0-9.43.17,6.4,6.4,0,0,0-4.8-1.82A10.59,10.59,0,0,0,91,40.31c-.58-2.76-.31-4.91.81-6.4,1.59-2.11,4.57-2.44,5.92-2.48l.15,0c3.45.05,6.26,2.36,7.88,6.49a.65.65,0,0,0,.63.41c6-.34,9.23,2.36,10.86,4.68a4.54,4.54,0,0,1,.12,4.36c-.23.31-.66.67-1.69.29h0l-.07-.08a.62.62,0,0,0-.65-.18c-4.48-1.56-6.16-1.34-10.35.31A6,6,0,0,1,104.52,45.29Zm-8.66,33.3c6.29-2.68,7.9-5.11,10.21-9l.75,0c4.85,0,8.44-3.86,9.71-10.54a.65.65,0,0,0-.51-.75.63.63,0,0,0-.75.51c-.46,2.39-2.45,10.06-9.17,9.47l0,0a11.82,11.82,0,0,1-2.77-2c5.3-1.19,9.15-6.42,9.77-10.94a7.48,7.48,0,0,0-3.26-7.73,14.3,14.3,0,0,1,5.08,1.14c1.17,1.44,1.1,2.72,1,4.44,0,.32,0,.65,0,1a.64.64,0,0,0,.62.65h0a.63.63,0,0,0,.64-.62c0-.33,0-.65,0-1a7.84,7.84,0,0,0-.55-4.16,2.34,2.34,0,0,0,1.73-.94c1.14-1.49.9-4.48-.09-5.88-1.78-2.53-5.22-5.45-11.52-5.24-2.27-5.36-5.89-6.63-8.23-6.84.42-2.8,2.19-4.62,3.36-4.84l.15-.05h0c1,0,2-.06,3-.06a112.84,112.84,0,0,1,11.56.72c2.57.25,4.79.47,6.67.47.44,0,.85,0,1.23,0a.36.36,0,0,0,.18,0c1,0,1.75,0,2.41,0a20.71,20.71,0,0,0,2.12-.08,3,3,0,0,1-2.08,3.44,13.05,13.05,0,0,1-3.19-.54.64.64,0,0,0-.32,1.24,14.26,14.26,0,0,0,3.49.58h0l.3,0a58.82,58.82,0,0,0,6.27.35,4,4,0,0,1-2.61,3.66l-.15,0c-.65.29-1.61.14-3.52-.26a.64.64,0,0,0-.26,1.26,16.15,16.15,0,0,0,3,.43,2.68,2.68,0,0,0,.4,0,12.22,12.22,0,0,1,2.7,8.88c-.12,2.32-.51,4.91-.88,7.42-.92,6.19-1.79,12.07.82,14.79a2.76,2.76,0,0,1-1.79.64h-.14c-4.52-1.43-4.21-5.07-3.25-11.33.78-5.17,1.66-11-1.26-16.6a.64.64,0,0,0-.86-.27.66.66,0,0,0-.27.87c2.73,5.21,1.87,10.84,1.12,15.8-.88,5.84-1.65,10.89,4.08,12.73.06.33.11.66.17,1a15.44,15.44,0,0,0,4.48,9.39c-.18,1.28-1.46,2-2.66,2.41a3.85,3.85,0,0,1-3.08-.84,7.7,7.7,0,0,1-2.15-4.32.29.29,0,0,0,0-.09,25.27,25.27,0,0,1-.46-4.61.64.64,0,0,0-.65-.63.64.64,0,0,0-.63.65,25.8,25.8,0,0,0,.5,4.91,11.93,11.93,0,0,1-2.81,9.55,7.16,7.16,0,0,1-5.33-4.9,33.32,33.32,0,0,0,2.36-7.55c.32-1.41.62-2.73,1-3.78a.63.63,0,0,0-.39-.81.64.64,0,0,0-.82.39c-.38,1.11-.69,2.48-1,3.92a31.92,31.92,0,0,1-2.27,7.29.66.66,0,0,0-.12.17,5.44,5.44,0,0,1-.27.54,1.62,1.62,0,0,1-.1.18.08.08,0,0,0,0,0c-1.86,3.2-5.51,4.75-9.79,4.13.1-5,1.83-8.22,7.33-13.74l0,0c6.61-7.74,12.77-17.49,8.32-31.1a.64.64,0,1,0-1.21.4c4.24,13-1.69,22.38-8.07,29.85a37.66,37.66,0,0,0-5.39,6.42.46.46,0,0,0-.07.07c-1.11,1.3-6.09,3.6-10.3,2l-.1,0A3.68,3.68,0,0,1,95.86,78.59Zm1.53,3.1a10.33,10.33,0,0,0,3.19.48,13.53,13.53,0,0,0,6-1.44,16.41,16.41,0,0,0-1.07,6.3.64.64,0,0,0,.52.63c4.9.91,9.15-.71,11.42-4.26a8.63,8.63,0,0,0,6.19,4.8.57.57,0,0,0,.18,0,.63.63,0,0,0,.49-.24,13.19,13.19,0,0,0,3.34-7.23,6.34,6.34,0,0,0,1.33,1.62,4.91,4.91,0,0,0,3.31,1.17,23.16,23.16,0,0,1,1.64,11.85c0,.11,0,.22,0,.31-1.36-.6-4.66-2.7-5.65-4.64a.62.62,0,0,0-.54-.35.65.65,0,0,0-.57.31l0,0c-1.81,3-3,5-5.68,6a14.37,14.37,0,0,1-6.6-6.73.64.64,0,0,0-.57-.36.63.63,0,0,0-.57.34,14,14,0,0,1-7.23,6.52,13,13,0,0,1-5.59-6.68.62.62,0,0,0-.52-.39.67.67,0,0,0-.6.27,14.63,14.63,0,0,1-5.94,5.2.58.58,0,0,0-.22-.08C93.63,88.08,94.68,84.43,97.39,81.69ZM92.28,94.47c0,.57,0,1.15,0,1.75a.62.62,0,0,0,.25.5.65.65,0,0,0,.37.14,30.51,30.51,0,0,0,.45,3.35c-17.74-3.84-29.48-6.56-28-17.27a14.08,14.08,0,0,0,4.61,1.5.63.63,0,0,0,.19,0h.11a.64.64,0,0,0,.62-.58.55.55,0,0,0,0-.18,14.46,14.46,0,0,0-.23-7.94,10.21,10.21,0,0,0,4.94-5.37.65.65,0,0,0-.18-.72,10.42,10.42,0,0,0-5.68-2.4c.29-3.21-.23-7.38-1.52-8.76a.67.67,0,0,0-.58-.2c-3.18.57-5.84,3.57-7.08,5.76a9.44,9.44,0,0,0-5.3-1.51.64.64,0,0,0-.61.48c-.29,1.06-1.1,4.45-.24,6.58L53.8,70a9.31,9.31,0,0,0-4.45,5.37.65.65,0,0,0,.08.59c.87,1.19,2.64,1.94,5.55,2.34-2.1,6.47.16,17.7,5.8,21.66,7.44,5.24,18.84,7.53,28.9,9.55,2.5.5,4.85,1,7.08,1.48H97a31.82,31.82,0,0,0,1.21,3.2.64.64,0,0,0,.59.39h0a3.43,3.43,0,0,0,.89.21,36.51,36.51,0,0,0,.68,4.12l-.11,0c-5,1.76-11.29-.05-13.29-2a.65.65,0,0,0-.8-.08c-3.43,2.24-7.56,1.39-10.52-2.16a.66.66,0,0,0-.56-.22c-5.37.6-9.35,0-11.37-5.13a.63.63,0,0,0-.54-.4c-8-.61-9.19-3.2-10.49-10.41a.61.61,0,0,0-.35-.46,8.08,8.08,0,0,1-4.17-5.07,10.07,10.07,0,0,1,1.41-8.16.64.64,0,0,0-.18-.88C46.48,82,44.86,79.13,45,76.29c.17-2.61,1.88-4.9,4.69-6.28a.64.64,0,0,0,.31-.8c-1.3-3.46-.82-6.48,1.34-8.53a7.72,7.72,0,0,1,8.21-1.43.64.64,0,0,0,.77-.2c2.73-3.65,6.7-4.35,9.2-3.15S73.09,60.17,72.1,64a.64.64,0,0,0,.71.79,5.09,5.09,0,0,1,4.93,2,7.21,7.21,0,0,1,.93,6.92,5.75,5.75,0,0,1-5,3.45.65.65,0,0,0-.46.27.64.64,0,0,0-.09.52,4.7,4.7,0,0,0,3.34,3.65,7.59,7.59,0,0,0,.8,6.35C80.14,92.53,87.91,94,92.28,94.47ZM20.48,39.92c2.74,4.12,6.66,6.85,9.58,8.88l.94.65a.62.62,0,0,0,.22.1c1,.93,1.54,1.49,2,2a23.2,23.2,0,0,0,3.27,2.93.66.66,0,0,0,.9-.11.64.64,0,0,0-.11-.9,22.13,22.13,0,0,1-3.13-2.8c-.53-.55-1.12-1.17-2.33-2.28a.45.45,0,0,0-.21-.12c-4.07-4.75-7.47-11.78-8-16.52,5.21-.12,10,2.6,17.84,7.29a.79.79,0,0,0,.26.08A48,48,0,0,1,53.09,50.16a.8.8,0,0,0,.13.13,21,21,0,0,0,.52,2.5c-3.7-3-8.39-4-14.82-3.13a.64.64,0,0,0-.55.55,17.79,17.79,0,0,0,3.37,12.32A60.83,60.83,0,0,0,25.65,54C20.87,49.14,19.53,42.92,20.48,39.92ZM8.2,61.81c2.59,2.55,9.29,5,13.81,5.8h.11c1.53,1.08,2.85,1.93,3.71,2.46A.64.64,0,0,0,26.51,69C19.9,64.88,12.07,58.56,11,53.91c5.07-1,10.12.24,13.18,1l.94.24h0c4.89,1.5,11,4.8,16.91,9.16a20.54,20.54,0,0,0-13.69,1,.66.66,0,0,0-.37.7,15.44,15.44,0,0,0,3.07,7.18,70,70,0,0,0-14.75.43C8.15,68.35,7.89,64.49,8.2,61.81ZM2.09,80.16c9.17-6.62,24.09-6.08,30.17-5.53,0,0,0,0,0,0a21.83,21.83,0,0,0,7.49,4.56c-5.48,1-11.72,5.23-14.66,8.64l-.64-.07-2.6-.32a.51.51,0,0,0-.21,0h0C14.92,86.53,5.9,84.9,2.09,80.16Zm-.37,8c1.65.95,4.35,1.24,7.44,1.24,2.66,0,5.61-.22,8.4-.43,1.46-.1,2.83-.2,4.07-.27l2.71.34.65.08a10.79,10.79,0,0,0,3.56,3.59A62.35,62.35,0,0,0,21,95.18c-.81.31-1.59.6-2.31.85C4.21,94.45,1.86,93.15,1.72,88.15Zm-.19,24.1c3.2-6.23,8.49-10.74,17.55-15l.08-.05,2.32-.86a48.12,48.12,0,0,1,8.8-2.72,20.43,20.43,0,0,0,11,1.74c-4.27,3.35-7.93,8.81-8.89,13.69l-1,.42C16.77,114.52,7,115.42,1.53,112.25Zm15.26,44.86c-.25-14.39,6.08-28.88,19.35-44.3a.64.64,0,1,0-1-.83,113.66,113.66,0,0,0-8,10.41,1,1,0,0,0-.16.06c-9,5.08-15.36,6.91-19.47,5.59-2.6-.84-4-2.88-5.07-4.94a9.33,9.33,0,0,0,1.07.06c4.88,0,11.17-3.45,17.76-7.06,3.52-1.93,7.13-3.91,10.6-5.39l.84-.3a.47.47,0,0,0,.15.06l.54.11c3.83.81,10.38,2.2,16.07-.62-2.59,4.7-3.57,11.76-3.09,17.3a.64.64,0,0,0,.53.58l.58.07C40.52,138.5,26.91,155.5,16.79,157.11Zm21.27,2.79c-2.26,2.37-8,6.1-12.47,3.87,3.38-2,7.86-9.57,14-20.39,2.61-4.61,5.08-9,7.18-12.07a.3.3,0,0,0,.06-.11Q48,129.55,49,127.93a13.13,13.13,0,0,0,1.6-.19c-1.64,6.65-2.71,14.17-3.58,20.32A89.81,89.81,0,0,1,38.06,159.9Zm12.37,16.28c-2.91-5.75-2.82-23.51-2.19-27.54a.42.42,0,0,0,0-.15A205.24,205.24,0,0,1,52,127.41,24.27,24.27,0,0,0,63,120.34c-1.29,6.65,2,12.12,4,15.62.35.58.65,1.09.91,1.55C64.53,158.17,56.61,171.84,50.43,176.18Zm14.81-14c.86-2.28,1.38-6,2.09-11.16.49-3.62,1.11-8.12,2-13.14A18.06,18.06,0,0,0,72.86,136a52.68,52.68,0,0,0,2,7.11c-.38,1.22-.74,2.57-1.11,4C72.28,152.75,70.47,159.69,65.24,162.14Zm12.22-17.55a5.75,5.75,0,0,1-1.27-1.72l-.07-.15a.36.36,0,0,0-.07-.1A54.12,54.12,0,0,1,74,135.13c5.22-4.25,7.06-10.69,7.67-13.75a.65.65,0,0,0-.51-.75.64.64,0,0,0-.75.5c-.57,2.92-2.34,9.12-7.35,13.11a.62.62,0,0,0-.31.24,16.08,16.08,0,0,1-3.85,2.16c-.24-.42-.51-.87-.79-1.34-2.53-4.24-6.35-10.65-2.62-18.55a.64.64,0,0,0-1.14-.57c-3.27,6.07-11.23,11-16.71,10.46-.44-6.64,1.25-15.14,5-18.75l.43-.38a.65.65,0,0,0,0-.9.64.64,0,0,0-.89-.06l-.45.4c-5.63,4.89-13.4,3.36-17.77,2.43a.64.64,0,0,1,0-.07.74.74,0,0,0-.17-.25C35,103.3,40.4,96.53,45.6,94.29a.64.64,0,0,0,.33-.84.64.64,0,0,0-.83-.34,18.39,18.39,0,0,1-14.38-.6.57.57,0,0,0-.23-.12,10.37,10.37,0,0,1-4.32-3.8c3.68-4.24,11.58-8.72,16.66-8.33a.64.64,0,0,0,.68-.52.64.64,0,0,0-.43-.73c-6.25-2-12.22-5-13.74-12.66a19.08,19.08,0,0,1,16.9,1.12.64.64,0,0,0,.73-1c-3.85-3.21-8-9.16-7.39-15.56,6.92-.85,11.63.62,15.22,4.73a.64.64,0,0,0,.83.12.64.64,0,0,0,.24-.8C53.89,50.4,54,46.61,55,41.7c11.46.82,17.75,12.43,18.51,15.71a.65.65,0,0,0,.77.48.64.64,0,0,0,.48-.77c-.83-3.54-7.7-16.21-20.24-16.73a.68.68,0,0,0-.66.51,31.94,31.94,0,0,0-.84,7.16A47.58,47.58,0,0,0,42.19,37.88l-.14-.07C36.41,31.36,34,25,33.6,23.08c17.5.14,38.5,16.2,45.47,25.32,13,17.05,9.61,25.69,7.54,28.61-2.47,3.49-6.59,4.46-9.2,3.61a.57.57,0,0,0-.18,0c-1.52-.6-2.25-1-2.7-2.23a6.94,6.94,0,0,0,5.31-4.11,8.44,8.44,0,0,0-1.08-8.2,6.33,6.33,0,0,0-5.23-2.59c.79-4.07-.45-7.29-3.42-8.71S62.77,54,59.64,57.89a9.08,9.08,0,0,0-9.14,1.86c-2.41,2.28-3.06,5.67-1.84,9.37a8.83,8.83,0,0,0-4.9,7.09c-.2,3.13,1.44,6.23,4.42,8.41a11.17,11.17,0,0,0-1.25,8.67A9.39,9.39,0,0,0,51.48,99c1.3,7.12,2.86,10.38,11.2,11.11,2.45,5.69,7.28,6.1,12.2,5.6a9.62,9.62,0,0,0,7.6,3.6,16.33,16.33,0,0,0,5.45,4.15C86.84,135.52,80.07,143.5,77.46,144.59ZM84,119.11a8.82,8.82,0,0,0,2.45-1c1.82,1.48,5.51,2.77,9.36,2.77a14.71,14.71,0,0,0,4.83-.77c.23,1,.48,2,.73,2.9A16.41,16.41,0,0,1,84,119.11Zm17-4.35a28.78,28.78,0,0,0,5.18-1,13.21,13.21,0,0,0,7.66,2.56,12.42,12.42,0,0,0,7.48-2.56,23.57,23.57,0,0,0,5.86,1.14,30.71,30.71,0,0,1-1.7,7.95l-.72-.21c-.36-.1-.74-.21-1.08-.28a.66.66,0,0,0-.52.13c-1.53,1.2-6.12,1.34-8.9-.78a.64.64,0,0,0-.83.05c-2.1,2-7.09,1.9-8.59.73a.62.62,0,0,0-.51-.13l-.93.22-.74.18A56.22,56.22,0,0,1,101,114.76Zm2.72,9.06.59-.15c2,1.25,7,1.36,9.6-.64a10.37,10.37,0,0,0,5.69,1.6,7.91,7.91,0,0,0,4.1-1l.7.2h0a60.57,60.57,0,0,1-2.19,7.33l-2-1a.63.63,0,0,0-.61,0,10.93,10.93,0,0,1-11.6,0,.64.64,0,0,0-.6,0l-2.09,1a50.39,50.39,0,0,1-1.71-7.37Zm15.48,22.34a42.13,42.13,0,0,1-5.41,20.21h-.18c-2.79-4.57-5.75-14.82-5.71-20.16a47.59,47.59,0,0,0-2.2-13.76l2-.93a12.15,12.15,0,0,0,12.31,0l1.82.89C120.29,136.55,119.05,140.19,119.16,146.16Zm-49,49.68-.56.67c-1.33,1.6-1.94,2.34-2.37,3a2.43,2.43,0,0,0-.15,2.57c.65,1.11,2.23,1.7,4.37,1.62h0c2.26-.27,3.87.44,4.43,2a4,4,0,0,1-1.22,4.27.64.64,0,0,0-.48.42.67.67,0,0,0,0,.57,4.83,4.83,0,0,1-1.73,4,6.94,6.94,0,0,1-3.67,1.46,7.34,7.34,0,0,0,1-3.75,4.78,4.78,0,0,0,.66,0A5,5,0,0,0,73,212a.64.64,0,0,0-.67-1.09,3.58,3.58,0,0,1-2.88.26l-.19-.07a4.61,4.61,0,0,1-2.63-3.5.62.62,0,0,0-.74-.46c-1.16.24-3,0-3.5-.72a.63.63,0,0,0-1.1.13c-.43,1-.74,2-1,2.91-.67,2.09-1.25,3.9-3,5.55a.63.63,0,0,0-.17.64c.81,2.74.46,4.54-1.1,5.69a.61.61,0,0,0-.26.61c.35,2.26.79,3.42,1.74,4.39a6.06,6.06,0,0,1-4.73-.05,3.82,3.82,0,0,1-2-2.1A6.45,6.45,0,0,0,53,224a.64.64,0,0,0-.3-1.24c-2.36.56-3.22-.33-3.66-1.05a6.58,6.58,0,0,1-.35-4.93c.51-1.83,2.64-2.75,3.93-2.8a.63.63,0,0,0,.61-.61,24.77,24.77,0,0,1,1.12-5.43.42.42,0,0,0,0-.15,30.56,30.56,0,0,1,2.05-5.24.64.64,0,1,0-1.11-.63,31.59,31.59,0,0,0-2.13,5.41c-2.45,2.22-4.93,2.89-7.54,3.59l-.71.19a.64.64,0,0,0-.47.56c-.21,2.41-.56,3.41-2.13,4.2a.58.58,0,0,0-.15.11,5.18,5.18,0,0,0-.73,5.18,5.94,5.94,0,0,1-3.69-1.79,4.64,4.64,0,0,1-1.23-2.53,5.32,5.32,0,0,0,1.75.14.65.65,0,0,0,.59-.7.64.64,0,0,0-.69-.58,2.65,2.65,0,0,1-1.92-.41.68.68,0,0,0-.18-.13C34.75,214,35,210.44,36,209c1.18-1.81,3.83-1.94,5.29-1.33a.62.62,0,0,0,.5,0,35.78,35.78,0,0,0,7.38-4.38,17.79,17.79,0,0,0,4.17-3.57l-.47-.44-.49-.41a16.76,16.76,0,0,1-3.78,3.28,10.37,10.37,0,0,1-6.41-1.72.65.65,0,0,0-.78,0l-.22.16c-1.45,1.09-2.82,2.12-6.35,1.1a.65.65,0,0,0-.61.14,7.47,7.47,0,0,0-2.44,3.75,7.39,7.39,0,0,1-1.54-5.05,6,6,0,0,1,1.17-3.32,5.08,5.08,0,0,0,1.23,2.56.63.63,0,0,0,.46.2.62.62,0,0,0,.44-.18.65.65,0,0,0,0-.91,3.61,3.61,0,0,1-.89-2.75.7.7,0,0,0,0-.38,5.33,5.33,0,0,1,5.43-3.55c1.65,0,3.73.8,4.15,2.8a.62.62,0,0,0,.49.49l9.92,2.18c1.28.28,2.72-.23,4.3-1.52l4.66-3.82a16.15,16.15,0,0,0,2.58.25h.21a.63.63,0,0,0,.62-.65.64.64,0,0,0-.65-.63,13.84,13.84,0,0,1-2.61-.24l-.11-.05-.07,0,4.95-4,1.21,0c.76,0,1.43,0,2-.09a.64.64,0,0,0-.14-1.28,21.15,21.15,0,0,1-2.87.08.57.57,0,0,0-.29-.11l-.32,0,4.71-4.46c.43,0,.91,0,1.4,0a17.33,17.33,0,0,0,2.28-.13.63.63,0,0,0,.56-.71.66.66,0,0,0-.72-.56,21.31,21.31,0,0,1-3.28.1l0,0-.31-.19,5.67-7.38a23.08,23.08,0,0,0,3.15-.33,13.2,13.2,0,0,0,.77,5.65l0,0a.63.63,0,0,1,.89-.15.64.64,0,0,1,.14.89l-.24.34h.2a11.67,11.67,0,0,0,6.26-3q.19.4.36.69C84.49,179.12,73.16,192.08,70.16,195.84Zm16.92-21.52a10.24,10.24,0,0,1-5.49,2.94,11.22,11.22,0,0,1-.68-5.63,17.31,17.31,0,0,0,5.15-2.16A13.18,13.18,0,0,0,87.08,174.32Zm49.17,30.12a5.3,5.3,0,0,0,4-6.09c4.41,1,5.41,3.92,5.6,5.66.39,3.44-1.69,7.17-4.63,8.32a.63.63,0,0,0-.41.62.65.65,0,0,0,.46.58c6.49,2,8,7.21,7.36,11.1a10.64,10.64,0,0,1-11,9c-5.86-.27-12.68-4.76-16.58-10.94a.63.63,0,0,0-.72-.28.65.65,0,0,0-.46.63c.24,14.88-3.1,19-6.09,22.62-2.91-3.51-6.1-7.74-5.86-22.62a.65.65,0,0,0-.46-.63.63.63,0,0,0-.72.28c-4.29,6.8-11.87,11.39-18,10.91A10.45,10.45,0,0,1,79,224.15c-.43-3.91,1.3-8.76,7.43-10.62a.63.63,0,0,0,.45-.58.62.62,0,0,0-.4-.62c-2.94-1.15-5-4.88-4.63-8.32.19-1.74,1.19-4.69,5.6-5.66a5.3,5.3,0,0,0,4,6.09c4.74,1.33,11.75-2,14.42-8.82.3-.23.6-.48.91-.77a18.78,18.78,0,0,0,3.16-3.73,28.2,28.2,0,0,0,3,7.06l.27,15.44a.64.64,0,0,0,.64.62h0a.62.62,0,0,0,.62-.65l-.28-15.69a29.48,29.48,0,0,0,2.82-6.89,15.81,15.81,0,0,0,4.71,4.47C124.41,202.42,131.48,205.77,136.25,204.44Zm5.39-35a17.92,17.92,0,0,0,6.28,2.4,11.33,11.33,0,0,1-.11,5.9,16,16,0,0,1-7.28-3.11l0,0A13.35,13.35,0,0,0,141.64,169.47Zm14.41,10.3-.43,0a18.79,18.79,0,0,1-2.7,0,.65.65,0,0,0-.7.58.64.64,0,0,0,.58.69,10.38,10.38,0,0,0,1.12,0c.59,0,1.18,0,1.76-.06l.4,0,4.79,4.54-.32,0a.67.67,0,0,0-.28.1,24.33,24.33,0,0,1-2.81-.05.64.64,0,1,0-.11,1.28c.6.05,1.23.07,1.82.07s.93,0,1.33,0l5,4-.07,0h0a18.24,18.24,0,0,1-2.25.27.65.65,0,0,0-.62.67.65.65,0,0,0,.64.61h0a18.66,18.66,0,0,0,2.23-.26l4.69,3.84c1.61,1.31,3,1.81,4.3,1.52l9.92-2.18a.62.62,0,0,0,.49-.49c.42-2,2.5-2.76,4.16-2.8h.14a5.33,5.33,0,0,1,5.23,3.39.64.64,0,0,0-.1.54,3.54,3.54,0,0,1-.9,2.75.65.65,0,0,0,0,.91.62.62,0,0,0,.44.18.63.63,0,0,0,.46-.2,5.16,5.16,0,0,0,1.26-2.71,6,6,0,0,1,1.29,3.47,7.39,7.39,0,0,1-1.54,5.05,7.56,7.56,0,0,0-2.44-3.75.65.65,0,0,0-.61-.14c-3.53,1-4.9,0-6.35-1.1l-.22-.16a.65.65,0,0,0-.78,0,9.3,9.3,0,0,1-6,1.72,16.62,16.62,0,0,1-3.82-3.26.63.63,0,0,0-.9,0,.65.65,0,0,0,0,.91,17.77,17.77,0,0,0,4.17,3.52,32.2,32.2,0,0,0,7,4.38.67.67,0,0,0,.5,0c1.41-.58,4.06-.56,5.3,1.33.95,1.47,1.21,5-.12,6.16a.66.66,0,0,0-.17.12,2.6,2.6,0,0,1-1.92.41.63.63,0,0,0-.69.58.65.65,0,0,0,.58.7,5.15,5.15,0,0,0,1.75-.14,4.6,4.6,0,0,1-1.23,2.54,6,6,0,0,1-3.68,1.78,5.13,5.13,0,0,0-.73-5.18.42.42,0,0,0-.15-.11c-1.57-.79-1.92-1.79-2.13-4.2a.63.63,0,0,0-.47-.56l-.75-.21c-2.57-.68-5.24-1.39-7.67-3.59a35,35,0,0,0-2.4-5.74.64.64,0,0,0-1.1.65,34.44,34.44,0,0,1,2.28,5.48.63.63,0,0,0,.1.29,23.88,23.88,0,0,1,1.26,5.39.64.64,0,0,0,.62.6c1.28.05,3.41,1,3.92,2.8a6.6,6.6,0,0,1-.35,4.93c-.44.72-1.3,1.61-3.66,1.05a.65.65,0,0,0-.78.48.64.64,0,0,0,.48.76,6.2,6.2,0,0,0,2.21.18,3.79,3.79,0,0,1-2,2.11,6.08,6.08,0,0,1-4.72.05c.95-1,1.39-2.14,1.74-4.39a.61.61,0,0,0-.26-.61c-1.56-1.15-1.91-3-1.1-5.69a.63.63,0,0,0-.17-.64c-1.7-1.65-2.28-3.46-3-5.55-.3-.94-.61-1.9-1-2.91a.63.63,0,0,0-1.1-.13c-.5.67-2.34,1-3.5.72a.64.64,0,0,0-.75.46,4.57,4.57,0,0,1-2.33,3.34.68.68,0,0,0-.44.07,3.58,3.58,0,0,1-2.88-.26.65.65,0,0,0-.88.22.64.64,0,0,0,.22.88,5,5,0,0,0,2.5.63,4.08,4.08,0,0,0,.61,0v0a7.43,7.43,0,0,0,1,3.9,6.82,6.82,0,0,1-3.14-1.05,5.33,5.33,0,0,1-2.38-3.65.63.63,0,0,0-.35-.47c-1.69-.78-2.73-3.52-2.14-5.64.52-1.9,2.23-2.81,4.8-2.55a.66.66,0,0,0,.2,0c2.64-.6,3.94-1.32,4.34-2.42a2.82,2.82,0,0,0-.71-2.67c-1.58-1.86-3.2-3.84-4.75-5.76-4.7-5.76-9.55-11.72-14.48-15.76l.29-.54a17.69,17.69,0,0,0,6.07,2.89c2.95,3.12,6.55,7.5,10,11.73,1.69,2.06,3.44,4.19,5.11,6.16a9.11,9.11,0,0,1,1.87,4l.05.17a.63.63,0,0,0,.62.49.39.39,0,0,0,.15,0,.64.64,0,0,0,.47-.77l0-.17a10.28,10.28,0,0,0-2.14-4.53c-1.67-2-3.42-4.1-5.11-6.15-3.05-3.71-6.19-7.53-8.92-10.54h.22a.62.62,0,0,0,.62-.49,13.74,13.74,0,0,0,.37-6.52c.4,0,.8.09,1.2.11l5.79,7.44Zm-17.72-40.58c2.12,4.73,5.5,10.62,9.89,12.89a2.88,2.88,0,0,1-.9.13h-.1c-5-.71-8-2.84-9-6.34a.61.61,0,0,0-.39-.42l-1.52-.57c-5.22-1.95-6.8-2.53-9.08-6.19a.65.65,0,0,0-.88-.21.64.64,0,0,0-.21.89c2.52,4,4.48,4.76,9.73,6.71l1.21.45c1.23,3.8,4.51,6.13,9.76,6.92a16.09,16.09,0,0,0,3.75,5.18l-.58.08a.76.76,0,0,0-.21,0c-3.57.18-8-2.22-11.78-6.43a.66.66,0,0,0-.34-.2c-3.56-.72-6.81-1.6-10.5-5a.64.64,0,1,0-.87.94,20.34,20.34,0,0,0,10.91,5.27c3.67,4,7.77,6.4,11.45,6.68.8,1.52,3.71,3.49,5.51,4.36a5.16,5.16,0,0,1-.78.39c-5.33.89-12.52-1.29-15.58-6.58a.66.66,0,0,0-.51-.33,17.3,17.3,0,0,1-9.42-4,.64.64,0,0,0-.9.11.63.63,0,0,0,.11.89,18.8,18.8,0,0,0,9.79,4.27c2.93,4.75,8.92,7.12,14.14,7.12a15.49,15.49,0,0,0,1.82-.1,21.84,21.84,0,0,0,5.27,4c-3.25,1.21-11.26,1.93-16.82-2.37a.65.65,0,0,0-.9.12,1.78,1.78,0,0,0-.13.67c.44,3.19-1.28,6.43-1.85,7.38l-.12.11-.16.21a13.77,13.77,0,0,1-6.33,5.05,11.76,11.76,0,0,0,1.29-5.45,13.82,13.82,0,0,0,4-12.19.64.64,0,1,0-1.27.15A12.69,12.69,0,0,1,132.13,175l-.08.06a2.34,2.34,0,0,1-1.23.76c.41-3.73,1.12-11.34-8.61-22.59a.64.64,0,0,0-1.09,0,.62.62,0,0,0-.11.47,58,58,0,0,0,5.16,24.78c-1.77-.41-2.37-.86-4.16-2.26a.62.62,0,0,0-.72,0,.63.63,0,0,0-.3.66c1,5.67,3.62,10.05,6.84,11.41a5.73,5.73,0,0,0,5.12-.32,6,6,0,0,1-1.78,6.3,7.37,7.37,0,0,1-8.12.6.56.56,0,0,0-.2-.14,13.3,13.3,0,0,1-5-4.84.62.62,0,0,0-.35-.31c.34-1.4.62-2.88.85-4.45,1.8,3.92,4.26,6.23,9.68,6.56h0a.64.64,0,0,0,0-1.28c-5.59-.33-7.53-2.81-9.33-7.57a.52.52,0,0,0-.11-.19,95.13,95.13,0,0,0,.49-11.11.64.64,0,0,0-1.27,0c.08,11.31-1.34,19.56-4.34,25.17-4.39-7.91-4.52-20.05-4.35-25.05a.64.64,0,0,0-.62-.66.63.63,0,0,0-.66.62,79.62,79.62,0,0,0,.39,10.88h0c-2.09,5.53-4.6,7.59-9.56,7.89a.64.64,0,0,0-.6.67.65.65,0,0,0,.64.61h0c5.35-.31,8-2.83,9.81-6.66.25,1.65.57,3.33,1,5a.64.64,0,0,0-.59.32,17.17,17.17,0,0,1-3.09,3.72c-.22.19-.42.37-.63.54a.48.48,0,0,0-.2.07c-3,1.66-6.32,1.51-8.55-.38a6,6,0,0,1-1.78-6.3,5.63,5.63,0,0,0,5,.33c3.19-1.35,5.71-5.62,6.74-11.42a.65.65,0,0,0-.3-.66.63.63,0,0,0-.73,0c-1.77,1.4-2.37,1.85-4.15,2.26a58.87,58.87,0,0,0,5.34-25,.63.63,0,0,0-.41-.6.65.65,0,0,0-.71.18c-9.82,11.29-9.12,19.2-8.69,22.77a2.4,2.4,0,0,1-1.26-.76l0,0a12.71,12.71,0,0,1-3.69-11.25.64.64,0,1,0-1.27-.15,13.79,13.79,0,0,0,3.95,12.18,12.1,12.1,0,0,0,1.32,5.46,13.58,13.58,0,0,1-6.37-5.06l-.14-.18a.68.68,0,0,0-.12-.12c-.56-.94-2.3-4.2-1.86-7.39a.49.49,0,0,0,0-.17.61.61,0,0,0-.12-.5.65.65,0,0,0-.9-.12A17.27,17.27,0,0,1,76.17,171H76a18.89,18.89,0,0,1-6.44-.93A22,22,0,0,0,75,165.93l0,0c.54.05,1.1.08,1.67.08,5.11,0,11-2.21,13.94-7a18.77,18.77,0,0,0,9.79-4.26.65.65,0,0,0,.11-.9.64.64,0,0,0-.9-.1,17.36,17.36,0,0,1-9.42,4,.61.61,0,0,0-.51.32c-3.2,5.53-10.53,7.45-15.81,6.43a.54.54,0,0,0-.18,0l-.22-.12c1.86-.9,4.88-2.95,5.58-4.48,3.51-.47,7.35-2.78,10.82-6.56A20.35,20.35,0,0,0,100.8,148a.65.65,0,0,0,0-.91.63.63,0,0,0-.9,0c-3.7,3.41-6.94,4.29-10.5,5a.66.66,0,0,0-.34.2c-3.82,4.23-8.07,6.54-11.68,6.37a.45.45,0,0,0-.23,0l-.09,0a15.66,15.66,0,0,0,3.77-5.22c5-.84,8-3.09,9.16-6.88l1.24-.46c5.24-2,7.2-2.68,9.7-6.7a.64.64,0,1,0-1.08-.68c-2.28,3.66-3.85,4.24-9.07,6.19l-1.53.57a.65.65,0,0,0-.39.42c-1,3.53-3.82,5.6-8.57,6.33a2.72,2.72,0,0,1-.83-.13c4.39-2.27,7.77-8.16,9.89-12.89,4.28-9.56,5.76-10.54,14.26-9.2.15.57.32,1.14.48,1.72,1.23,4.3,2.5,8.75,2.46,14.49,0,6,3.34,17.29,6.42,21.64l.23,20.54a.64.64,0,0,0,.64.63h0a.64.64,0,0,0,.63-.64l-.23-20.45c3.66-5.51,6.3-14.85,6.16-21.78-.11-5.89,1.16-9.46,2.64-13.59.3-.83.6-1.67.89-2.55C132.56,128.64,134,129.59,138.33,139.19Zm-11.66-16a29.24,29.24,0,0,0,.88-2.89,14.91,14.91,0,0,0,4.19.57c3.85,0,7.55-1.29,9.36-2.77a8.76,8.76,0,0,0,2.44,1A16.45,16.45,0,0,1,126.67,123.21Zm23.42,21.38c-2.61-1.09-9.39-9.07-10.47-21.13a16.16,16.16,0,0,0,5.42-4.14,9.6,9.6,0,0,0,7.62-3.6c4.93.5,9.76.09,12.21-5.6,8.34-.73,9.9-4,11.2-11.11a9.36,9.36,0,0,0,4.55-5.72,11.18,11.18,0,0,0-1.26-8.67c3-2.18,4.62-5.28,4.42-8.41a8.82,8.82,0,0,0-4.89-7.09c1.22-3.7.56-7.09-1.84-9.37a9.1,9.1,0,0,0-9.15-1.86c-3.13-3.86-7.59-4.52-10.47-3.14s-4.21,4.64-3.42,8.71h-.1a6.32,6.32,0,0,0-5.12,2.59,8.44,8.44,0,0,0-1.08,8.2,6.92,6.92,0,0,0,5.3,4.11c-.45,1.19-1.18,1.63-2.71,2.23a1.13,1.13,0,0,0-.18,0c-2.61.85-6.73-.12-9.2-3.61-2.07-2.92-5.49-11.55,7.54-28.61,7-9.12,28-25.18,45.47-25.32-.42,1.92-2.78,8.2-8.34,14.61a.53.53,0,0,0-.17.08A47.54,47.54,0,0,0,174.49,48a31.54,31.54,0,0,0-.84-7.12.65.65,0,0,0-.65-.51c-12.54.52-19.41,13.19-20.24,16.73a.64.64,0,1,0,1.24.29c.77-3.28,7.06-14.89,18.51-15.71,1,4.91,1.14,8.71-.84,13.22a.64.64,0,0,0,1.07.68C176.33,51.49,181,50,188,50.87c.64,6.4-3.53,12.35-7.39,15.56a.64.64,0,0,0-.12.86.64.64,0,0,0,.85.18,19.08,19.08,0,0,1,16.9-1.12C196.68,74,190.71,77,184.46,79a.64.64,0,0,0,.25,1.25c5.08-.39,13,4.09,16.66,8.33a10.37,10.37,0,0,1-4.32,3.8.57.57,0,0,0-.23.12,18.36,18.36,0,0,1-14.37.6.63.63,0,0,0-.83.34.64.64,0,0,0,.33.84c5.19,2.24,10.56,9,11.83,14.73a.64.64,0,0,0-.1.18.51.51,0,0,0,0,.17c-4.37.93-12.17,2.48-17.83-2.42l-.44-.4a.64.64,0,0,0-.89.06.65.65,0,0,0,0,.9l.43.38c3.71,3.61,5.41,12.11,5,18.75a10.75,10.75,0,0,1-3.59-.32.58.58,0,0,0-.19,0,22.23,22.23,0,0,1-12.94-10.1.64.64,0,0,0-1.14.57c3.73,7.9-.09,14.31-2.61,18.55-.28.47-.55.92-.79,1.34a16.32,16.32,0,0,1-3.86-2.17.66.66,0,0,0-.29-.23c-5-4-6.8-10.19-7.37-13.11a.64.64,0,0,0-1.26.25c.61,3.06,2.45,9.5,7.68,13.74a54.12,54.12,0,0,1-2.07,7.51.35.35,0,0,0-.06.09l-.09.17A5.59,5.59,0,0,1,150.09,144.59Zm3.71,2.49c-.37-1.43-.73-2.78-1.11-4a52.41,52.41,0,0,0,2-7.12,17,17,0,0,0,3.52,1.87c.91,5,1.53,9.55,2,13.18.7,5.11,1.21,8.85,2.07,11.13C157.08,159.69,155.27,152.75,153.8,147.08Zm23.32,29.1c-6.18-4.33-14.1-18-17.48-38.66.25-.47.56-1,.91-1.56,2.08-3.5,5.34-9,4-15.62a24.27,24.27,0,0,0,11,7.08,209.7,209.7,0,0,1,3.71,21.06.43.43,0,0,0,0,.12C179.93,152.57,180,170.42,177.12,176.18ZM188,143.38c6.14,10.83,10.63,18.4,14,20.39-4.47,2.24-10.22-1.5-12.47-3.87a89.22,89.22,0,0,1-9-11.83c-.86-6.18-1.93-13.74-3.55-20.33a12.13,12.13,0,0,0,1.55.19c.75,1.16,1.54,2.34,2.36,3.53C182.94,134.56,185.37,138.84,188,143.38ZM224,123.15a8.81,8.81,0,0,0,1-.06c-1,2.07-2.46,4.12-5.06,4.95-4.11,1.33-10.49-.5-19.48-5.59l-.13,0a112.25,112.25,0,0,0-8-10.43.64.64,0,0,0-.9-.07.65.65,0,0,0-.07.91c13.27,15.41,19.61,29.91,19.35,44.31C200.65,155.53,187,138.51,180,127.91l.62-.07a.64.64,0,0,0,.53-.58c.47-5.54-.52-12.6-3.1-17.3,5.69,2.82,12.22,1.43,16.05.62l.55-.11a.67.67,0,0,0,.23-.1,115.23,115.23,0,0,1,11.37,5.72C212.86,119.7,219.14,123.15,224,123.15ZM195.08,109c-1-4.86-4.62-10.29-8.87-13.62a20.4,20.4,0,0,0,11-1.74A48.09,48.09,0,0,1,206,96.37c.82.3,1.59.6,2.31.85a.41.41,0,0,0,.11.07c9,4.22,14.33,8.71,17.52,14.91C220.37,115.37,210.25,114.33,195.08,109Z"/><path class="cls-3" d="M217.68,108.66c-4.13-1.9-7-3.33-9.51-4.6a123.12,123.12,0,0,0-16.7-7.15.64.64,0,1,0-.43,1.2,120.45,120.45,0,0,1,16.55,7.1c2.53,1.26,5.4,2.7,9.56,4.61a.58.58,0,0,0,.26.06.61.61,0,0,0,.58-.37A.64.64,0,0,0,217.68,108.66Z"/><path class="cls-3" d="M186.37,48.8a.66.66,0,0,0,.35.11.64.64,0,0,0,.53-.29,51.23,51.23,0,0,1,13.21-12.88.64.64,0,1,0-.71-1.06,52.44,52.44,0,0,0-13.57,13.24A.63.63,0,0,0,186.37,48.8Z"/><path class="cls-3" d="M36.51,98.11a.64.64,0,0,0-.42-1.2,122.55,122.55,0,0,0-16.7,7.15c-2.52,1.26-5.38,2.7-9.52,4.6a.64.64,0,0,0-.32.85.63.63,0,0,0,.58.37.66.66,0,0,0,.27-.06c4.16-1.91,7-3.35,9.57-4.62A122.24,122.24,0,0,1,36.51,98.11Z"/><path class="cls-3" d="M199.59,64.3a.66.66,0,0,0,.48.22.61.61,0,0,0,.42-.16A47.15,47.15,0,0,1,211.42,57a.66.66,0,0,0,.27-.87.64.64,0,0,0-.87-.26,47.89,47.89,0,0,0-11.16,7.48A.65.65,0,0,0,199.59,64.3Z"/><path class="cls-3" d="M194.89,80.55a.64.64,0,0,0,.63.56h.08c9.46-1.13,14.32-1.47,24.52-.24a.64.64,0,0,0,.15-1.28c-10.29-1.23-15.46-.87-24.82.25A.64.64,0,0,0,194.89,80.55Z"/><path class="cls-3" d="M104.14,22h19.45a.64.64,0,0,0,0-1.28H104.14a.64.64,0,0,0,0,1.28Z"/><path class="cls-3" d="M101.24,33.11A6.68,6.68,0,0,0,96.35,32a.65.65,0,0,0-.53.73.64.64,0,0,0,.74.53,5.46,5.46,0,0,1,3.94.91.63.63,0,0,0,.37.12.62.62,0,0,0,.52-.27A.63.63,0,0,0,101.24,33.11Z"/><path class="cls-3" d="M119,198.88a.64.64,0,0,0-1.14.58v0c.06,7.36-.38,16.5-4.19,22.86-4.67-7.21-4.66-19.28-4.54-22.91a.67.67,0,0,0-.06-.28.66.66,0,0,0-.31-.42.64.64,0,0,0-.87.25c-3.64,6.5-11.53,9.72-16.62,8.65-2.7-.57-4.31-2.25-4.55-4.74a.65.65,0,0,0-.7-.58.64.64,0,0,0-.57.7A6.47,6.47,0,0,0,91,208.88a11.06,11.06,0,0,0,2.34.23,18.85,18.85,0,0,0,14.48-7.67A61.21,61.21,0,0,0,109,213.28a.65.65,0,0,0-.38.33c-5.22,10.86-13.1,14.26-18.58,12.81a6.46,6.46,0,0,1-5.17-6.9.65.65,0,0,0-.6-.68.63.63,0,0,0-.68.6,7.78,7.78,0,0,0,6.12,8.22,11.21,11.21,0,0,0,2.81.35c5.49,0,12.16-3.82,16.86-13a25.77,25.77,0,0,0,3.72,8.72l.2,14.53a.64.64,0,0,0,.64.63h0a.65.65,0,0,0,.63-.65l-.19-14.49a26.38,26.38,0,0,0,3.47-8.45c4.8,8.87,11.69,12.55,17.25,12.54a11.56,11.56,0,0,0,2.92-.36c4-1.05,6.35-4.19,6.09-8a.64.64,0,0,0-.68-.6.63.63,0,0,0-.59.68c.22,3.22-1.76,5.77-5.15,6.67-5.62,1.49-14.08-1.93-19.42-12.93a68.06,68.06,0,0,0,.93-11.83,19.76,19.76,0,0,0,14.91,7.63,12,12,0,0,0,2.44-.24c3.28-.69,5.33-2.82,5.62-5.83a.64.64,0,0,0-.57-.7.65.65,0,0,0-.7.58c-.32,3.31-3,4.36-4.62,4.7C130.92,208.69,122.72,205.47,119,198.88Z"/><path class="cls-3" d="M139.87,213.26a.6.6,0,0,0-.49,0,.62.62,0,0,0-.3,0,12,12,0,0,1-2.49.59,12.85,12.85,0,0,1-1.4.08,18.45,18.45,0,0,1-11.28-4.25.64.64,0,0,0-.55-.12.66.66,0,0,0-.49.08.63.63,0,0,0-.27.71c1.72,6.38,5.46,10.89,10,12a8.06,8.06,0,0,0,2,.25c.23,0,.46,0,.68,0a5.57,5.57,0,0,0,4.3-2.2c1.24-1.68,1.48-4.08.67-6.77A.65.65,0,0,0,139.87,213.26Zm-5,8.08h0c-3.44,0-7.69-2.88-10-9.25a18.84,18.84,0,0,0,11.79,3,13.05,13.05,0,0,0,2.29-.42c.54,2.25.2,4.12-1,5.33a4.42,4.42,0,0,1-2.81,1.29Z"/><path class="cls-3" d="M62.72,202.13a.64.64,0,0,0,.61.45.64.64,0,0,0,.61-.83c-.64-2,1.86-4.84,6-9.48A164.47,164.47,0,0,0,81.18,178.6a.6.6,0,0,1-.43-.26,4.18,4.18,0,0,1-.41-.77A161.64,161.64,0,0,1,69,191.42C64.55,196.4,61.86,199.4,62.72,202.13Z"/><path class="cls-3" d="M113.8,133.46a.64.64,0,0,0-.63.64v20.4a.64.64,0,0,0,.64.65h0a.64.64,0,0,0,.64-.64V134.1A.64.64,0,0,0,113.8,133.46Z"/><path class="cls-3" d="M45.52,114.36a.65.65,0,0,0-.89.18l-20.29,30.7a.65.65,0,0,0,.53,1,.64.64,0,0,0,.53-.29l20.3-30.7A.65.65,0,0,0,45.52,114.36Z"/><path class="cls-3" d="M27.47,64.52A.68.68,0,0,0,28,64.3a.65.65,0,0,0-.07-.91,48.1,48.1,0,0,0-11.16-7.48.63.63,0,0,0-.86.26.64.64,0,0,0,.26.87,47,47,0,0,1,10.92,7.32A.63.63,0,0,0,27.47,64.52Z"/><path class="cls-3" d="M119.48,33.09a.64.64,0,0,0,.21-1.24c-4.15-1.48-8.21-2.78-11.44-3.66-1.2-.3-2.71-.67-3.64.9a.63.63,0,0,0,.22.87.62.62,0,0,0,.87-.22c.38-.62.78-.67,2.23-.32l.29.08a4.8,4.8,0,0,0,.52,4.75,4.22,4.22,0,0,0,3.35,1.7,4.14,4.14,0,0,0,.7-.06c1-.18,2.82-.91,3.88-3.74l2.6.9A.52.52,0,0,0,119.48,33.09Zm-6.91,1.53a2.9,2.9,0,0,1-2.81-1.14,3.61,3.61,0,0,1-.31-3.62l.66.19a2.76,2.76,0,0,0,0,3,.65.65,0,0,0,.55.32.68.68,0,0,0,.33-.09.64.64,0,0,0,.22-.87,1.48,1.48,0,0,1,.06-1.68.71.71,0,0,0,.09-.28c1.31.41,2.7.85,4.14,1.33C114.82,33.39,113.81,34.41,112.57,34.62Z"/><path class="cls-3" d="M40.89,49a.64.64,0,0,0,.35-.1.63.63,0,0,0,.19-.88A52.74,52.74,0,0,0,27.87,34.79a.64.64,0,1,0-.71,1.07,51.48,51.48,0,0,1,13.2,12.87A.62.62,0,0,0,40.89,49Z"/><path class="cls-3" d="M174.08,39.43a.62.62,0,0,0,.39.14.63.63,0,0,0,.5-.25c3.28-4.18,5.6-5.82,10.22-9.09l3-2.16a.64.64,0,1,0-.75-1l-3,2.14c-4.72,3.35-7.09,5-10.48,9.35A.64.64,0,0,0,174.08,39.43Z"/><path class="cls-3" d="M94.81,222.39c4.53-1.16,8.26-5.66,10-12a.63.63,0,0,0-.27-.71.65.65,0,0,0-.75,0c-3.86,3.17-10.13,5.49-15.46,3.58a.63.63,0,0,0-.76.26.53.53,0,0,0-.08.17c-.91,3-.53,5.57,1.08,7.25a5.83,5.83,0,0,0,4.29,1.7A8.06,8.06,0,0,0,94.81,222.39Zm-5.34-2.34c-1.17-1.22-1.49-3.11-1-5.37,5,1.47,10.49-.2,14.47-2.83-1.77,5-4.86,8.37-8.5,9.3A5.08,5.08,0,0,1,89.47,220.05Z"/><path class="cls-3" d="M43.07,29.17c-.91-.64-1.9-1.34-3-2.14a.64.64,0,1,0-.74,1c1.1.8,2.1,1.5,3,2.15,4.62,3.27,6.94,4.91,10.22,9.1a.66.66,0,0,0,.9.11.64.64,0,0,0,.11-.9C50.17,34.2,47.79,32.52,43.07,29.17Z"/><text/></g></g></svg>