<svg xmlns="http://www.w3.org/2000/svg" viewBox="0 0 463.49 119.82"><defs><style>.cls-1,.cls-2{fill:#231f20;}.cls-2{fill-rule:evenodd;}</style></defs><g id="Layer_2" data-name="Layer 2"><g id="Warstwa_1" data-name="Warstwa 1"><path class="cls-1" d="M102,29.75a7.44,7.44,0,0,0-4.21-1.31,7.65,7.65,0,0,0-6,2.9A9,9,0,0,0,89.9,37a8.71,8.71,0,0,0,3.3,7,7.51,7.51,0,0,0,4.6,1.58c4.21,0,7.65-3.52,7.81-8.21V37A8.66,8.66,0,0,0,102,29.75Z"/><path class="cls-1" d="M169.76,28.36c-4.39,0-7.16,3.2-7.16,8.71s2.6,8.54,7,8.54c4.07,0,7.08-3.37,7.08-8.79S174.08,28.36,169.76,28.36Z"/><path class="cls-1" d="M1,1V59.87H238.92V1ZM48.47,51.44l-11-28.2-11,28.2L11.29,10h6.36L27,35.46,37.46,8.56,48,35.46,57.26,10h6.36ZM80.3,29.34a5.78,5.78,0,0,0-3.59-1.07c-3.19,0-4.69,1.95-5.22,6a32.78,32.78,0,0,0-.23,4.22V49.72H65.4V24h5.86v4.11a7.21,7.21,0,0,1,3.42-4.33,6.2,6.2,0,0,1,1.63-.51,8,8,0,0,1,1.22-.09h.08a9.8,9.8,0,0,1,4.72,1.15Zm31.45,8.81a13.36,13.36,0,0,1-4,8.53,14.17,14.17,0,0,1-19.86.08A13.65,13.65,0,0,1,83.8,36.9a13.43,13.43,0,0,1,4.07-9.77,14.26,14.26,0,0,1,9.85-3.95,13.91,13.91,0,0,1,9.93,4,13.36,13.36,0,0,1,4.15,9.69C111.8,37.32,111.78,37.74,111.75,38.15ZM137,31.4a9,9,0,0,0-7-3c-4.72,0-7.81,3.28-7.81,8.46,0,5.34,3.09,8.54,8.14,8.54a7.91,7.91,0,0,0,6.68-3.2V49a14.31,14.31,0,0,1-7.33,1.8c-8,0-13.51-5.66-13.51-13.8s5.7-13.8,14.08-13.8A13.72,13.72,0,0,1,137,24.74Zm16.2-6.33-3.5,2.55v22.1h-5.95V31.23l-3.5,2.55V28.11l3.5-2.55V7.73h5.95V22l3.5-2.47Zm29.22,24.65h-5.86V46.43a9.7,9.7,0,0,1-8.39,4.35c-7.08,0-11.56-5.17-11.56-13.88,0-8.3,4.73-13.72,11.4-13.72,4.16,0,7.17,1.81,8.55,5.09V24.08h5.86ZM214,51.29l-7.73-17.41-7.75,17.41L185.24,24.05h5.63l7.69,15.8,7.68-17.26,7.66,17.26,7.69-15.8h5.64Z"/><path class="cls-2" d="M38.71,81.08c-3.69,0-3.81.11-6.85,2.07-2.5-2-3.15-2.07-6.52-2.07-1.84-.11-4.13.33-5.21,2V81H17.3v20h2.83V85.32c0-2.5,3-2.72,4.89-2.72,1.62,0,5.32.55,5.32,2.72V101h2.83V85.43c0-2.5,3.8-2.72,5.54-2.72s4.67.33,4.67,2.72V101H46.1V86.52C46.1,82.5,42.08,81,38.71,81.08Z"/><rect class="cls-1" x="59.01" y="72.6" width="2.72" height="4.24"/><rect class="cls-1" x="59.01" y="80.97" width="2.72" height="20"/><path class="cls-2" d="M84.85,81.08l-3-.11c-3.37,0-7,1.53-7,5.44V87h2.72c0-3.91,2.72-4.35,6-4.35,3,0,5.54.87,5.54,4.35V88c-2.82,1.08-12.39,2.61-13.8,5.11a4.9,4.9,0,0,0-.55,2.5c0,3.8,3.81,5.32,7.07,5.32h1.52c.76,0,5.66-2.28,5.66-2.28V101h2.82V86.52C91.81,82.6,88.22,81.08,84.85,81.08ZM89,95.76c0,2.28-5.66,3.58-7.51,3.58a3.87,3.87,0,0,1-4.12-4.13,2.56,2.56,0,0,1,.64-2c1-1,9.46-3.58,11-3.58Z"/><path class="cls-2" d="M112.54,81l-2.28.11c-2.61,0-6.62,1.74-6.62,4.78V87.6c0,4.46,13.47,2.83,13.47,7s-1,4.78-5.32,4.78c-3.16,0-5.76-.76-5.76-4.35h-2.62c0,4.79,3.37,6,7.61,6h2.4c2.71,0,6.41-1.63,6.41-4.23v-2.4c0-5.22-13.48-4.13-13.48-7.06,0-3.59,1.2-4.57,5.32-4.57,3.26,0,5.44.65,5.44,4.35h2.72V85.21C119.83,82,114.93,81,112.54,81Z"/><path class="cls-2" d="M136.75,75.32l-2.6-1.08V81h-3.91V82.6h3.91V97.5c0,2.06,1.85,3.47,4,3.47h2.29V99.45c-1.1.11-3.48.22-3.48-1.52V82.6h3.58V81h-3.81Z"/><path class="cls-2" d="M161.73,81.08,158.8,81c-3.37,0-7.07,1.74-7.07,5.55v9.13c0,3.91,3.59,5.32,7.07,5.32h2.93c3.48,0,7.07-1.41,7.07-5.32V86.52C168.8,82.71,165.1,81.08,161.73,81.08ZM166,95.76c0,3.14-3.26,3.69-5.65,3.69s-5.76-.44-5.76-3.69V86.84c0-3.37,2.93-4.24,5.76-4.24s5.65,1,5.65,4.24Z"/><path class="cls-2" d="M200.3,87.28c0-3.59,1.19-4.57,5.43-4.57,3.25,0,5.32.65,5.32,4.35h2.72V85.21C213.77,82,209,81,206.59,81l-2.39.11c-2.61,0-6.63,1.74-6.63,4.78V87.6c0,4.46,13.48,2.83,13.48,7s-1,4.78-5.22,4.78c-3.15,0-5.76-.76-5.76-4.35h-2.61c0,4.79,3.37,6,7.51,6h2.39c2.72,0,6.52-1.63,6.52-4.23v-2.4C213.88,89.12,200.3,90.21,200.3,87.28Z"/><path class="cls-2" d="M234.83,81.08c-1.85-.11-5.65.22-6.63,2.07V81h-2.39v29.46h2.72V99.56a6.31,6.31,0,0,0,4.56,1.52c3.81,0,9.68-.33,9.68-5.43V86.52C242.77,82.28,238.3,81.08,234.83,81.08Zm5.32,14.68c0,3.14-3.36,3.69-5.86,3.69s-5.76-.55-5.76-3.69V87c0-3.26,3-4.24,5.76-4.24s5.86,1,5.86,4.24Z"/><path class="cls-2" d="M264.26,81.08,261.21,81c-3.25,0-6.95,1.74-6.95,5.55v9.13c0,3.91,3.59,5.32,6.95,5.32h3.05c3.37,0,7-1.41,7-5.32V86.52C271.22,82.71,267.63,81.08,264.26,81.08Zm4.24,14.68c0,3.14-3.26,3.69-5.76,3.69S257,99,257,95.76V86.84c0-3.37,3-4.24,5.76-4.24s5.76,1,5.76,4.24Z"/><path class="cls-2" d="M287.61,75.32l-2.72-1.08V81h-3.8V82.6H285V97.5c0,2.06,1.74,3.47,4,3.47h2.28V99.45c-1.19.11-3.48.22-3.48-1.52V82.6h3.59V81h-3.8Z"/><polygon class="cls-2" points="318.23 80.97 315.62 80.97 305.52 89.99 305.52 68.04 302.8 68.04 302.8 100.97 305.62 100.97 305.62 92.28 308.45 89.67 315.62 100.97 318.67 100.97 310.62 87.82 318.23 80.97"/><path class="cls-2" d="M339.07,81.08,335.92,81c-3.37,0-6.95,1.53-6.95,5.44V87h2.82c0-3.91,2.61-4.35,5.87-4.35,3,0,5.55.87,5.55,4.35V88c-2.84,1.08-12.29,2.61-13.81,5.11a5,5,0,0,0-.54,2.5c0,3.8,3.8,5.32,7.06,5.32h1.53c.76,0,5.65-2.28,5.65-2.28V101H346V86.52C346,82.6,342.45,81.08,339.07,81.08Zm4.14,14.68c0,2.28-5.76,3.58-7.61,3.58a3.88,3.88,0,0,1-4.13-4.13,2.6,2.6,0,0,1,.64-2c1-1,9.47-3.58,11.1-3.58Z"/><polygon class="cls-2" points="369.83 73.04 367.14 71.95 363.44 78.39 365.25 78.39 369.83 73.04"/><path class="cls-2" d="M367.85,81l-1.84.11a12.35,12.35,0,0,0-5.77,2.07V81h-2.71v20h2.82V85.43c0-2,4.47-2.72,6-2.72,1.74,0,5.44.33,5.44,2.72V101h2.82V86.41C374.59,82.6,371.22,81,367.85,81Z"/><path class="cls-1" d="M239.92,58.87V0H0V119.82H463.49V58.87ZM2,2H237.92V58.87H2ZM461.49,117.82H2V60.87H461.49Z"/></g></g></svg>